<svg width="16" height="19" viewBox="0 0 16 19" fill="none" xmlns="http://www.w3.org/2000/svg">
<path fill-rule="evenodd" clip-rule="evenodd" d="M8.66667 3.66602H4C2.91067 3.66602 2 4.57668 2 5.66602V16.3327C2 16.8631 2.21071 17.3718 2.58579 17.7469C2.96086 18.122 3.46957 18.3327 4 18.3327H12C12.5304 18.3327 13.0391 18.122 13.4142 17.7469C13.7893 17.3718 14 16.8631 14 16.3327V8.99935C14 8.82036 13.9295 8.65785 13.8147 8.5381C13.8114 8.53468 13.8081 8.5313 13.8047 8.52794L9.13847 3.86168L9.13807 3.86128C9.01305 3.73625 8.84348 3.66602 8.66667 3.66602ZM8 4.99935H4C3.64638 4.99935 3.33333 5.31239 3.33333 5.66602V16.3327C3.33333 16.5095 3.40357 16.6791 3.5286 16.8041C3.65362 16.9291 3.82319 16.9993 4 16.9993H12C12.1768 16.9993 12.3464 16.9291 12.4714 16.8041C12.5964 16.6791 12.6667 16.5095 12.6667 16.3327V9.66602H8.66667C8.29848 9.66602 8 9.36754 8 8.99935V4.99935ZM11.7239 8.33268L9.33333 5.94216V8.33268H11.7239Z" fill="#C7C7D9"/>
</svg>
