<svg width="178" height="36" viewBox="0 0 178 36" fill="none" xmlns="http://www.w3.org/2000/svg">
<path d="M139.125 11.49H134.25V15.36H138.9V16.35H134.25V21H133.2V10.5H139.125V11.49ZM147.52 13.5H148.51V21H147.52V19.53C146.83 20.63 145.82 21.18 144.49 21.18C143.42 21.18 142.505 20.8 141.745 20.04C140.995 19.28 140.62 18.35 140.62 17.25C140.62 16.15 140.995 15.22 141.745 14.46C142.505 13.7 143.42 13.32 144.49 13.32C145.82 13.32 146.83 13.87 147.52 14.97V13.5ZM142.465 19.365C143.035 19.935 143.735 20.22 144.565 20.22C145.395 20.22 146.095 19.935 146.665 19.365C147.235 18.785 147.52 18.08 147.52 17.25C147.52 16.42 147.235 15.72 146.665 15.15C146.095 14.57 145.395 14.28 144.565 14.28C143.735 14.28 143.035 14.57 142.465 15.15C141.895 15.72 141.61 16.42 141.61 17.25C141.61 18.08 141.895 18.785 142.465 19.365ZM158.901 13.32C159.741 13.32 160.416 13.59 160.926 14.13C161.446 14.67 161.706 15.4 161.706 16.32V21H160.716V16.32C160.716 15.67 160.546 15.17 160.206 14.82C159.876 14.46 159.436 14.28 158.886 14.28C158.266 14.28 157.761 14.49 157.371 14.91C156.991 15.32 156.801 15.965 156.801 16.845V21H155.811V16.32C155.811 15.66 155.651 15.155 155.331 14.805C155.021 14.455 154.596 14.28 154.056 14.28C153.456 14.28 152.946 14.49 152.526 14.91C152.106 15.33 151.896 15.975 151.896 16.845V21H150.906V13.5H151.896V14.595C152.436 13.745 153.201 13.32 154.191 13.32C155.271 13.32 156.031 13.775 156.471 14.685C157.011 13.775 157.821 13.32 158.901 13.32ZM164.926 11.7C164.786 11.84 164.616 11.91 164.416 11.91C164.216 11.91 164.046 11.84 163.906 11.7C163.766 11.56 163.696 11.39 163.696 11.19C163.696 10.99 163.766 10.82 163.906 10.68C164.046 10.54 164.216 10.47 164.416 10.47C164.616 10.47 164.786 10.54 164.926 10.68C165.066 10.82 165.136 10.99 165.136 11.19C165.136 11.39 165.066 11.56 164.926 11.7ZM163.921 21V13.5H164.911V21H163.921ZM167.312 21V10.05H168.302V21H167.312ZM176.102 13.5H177.152L173.942 21.69C173.652 22.43 173.237 23.01 172.697 23.43C172.167 23.86 171.572 24.05 170.912 24V23.07C171.812 23.17 172.497 22.65 172.967 21.51L173.162 21.045L169.802 13.5H170.852L173.672 19.785L176.102 13.5Z" fill="white"/>
<path d="M94.1873 8.80489H89.2438V5.51864H95.2773L100.225 0.571149L100.265 0.615395V0.559082H83.4517V22.6096H94.4608C98.8854 22.6096 102.184 20.3973 102.184 15.7153C102.184 11.0333 98.8774 8.80489 94.1873 8.80489ZM93.6362 17.9075H89.2438V13.4829H93.6362C94.9998 13.4829 96.3835 14.0219 96.3835 15.6791C96.3835 17.3363 94.9998 17.9235 93.6362 17.9235V17.9075Z" fill="white"/>
<path d="M58.3563 0.559082H45.4405L37.959 8.04065V22.6096H43.7471V5.51863H52.5681V22.6096H52.5802L58.3563 16.8335V0.559082Z" fill="white"/>
<path d="M72.5231 17.9115C68.6617 17.9115 66.4896 15.0959 66.4896 11.5763C66.4896 8.76069 68.0704 5.23711 72.4145 5.23711C73.3862 5.24399 74.3446 5.46363 75.2222 5.88058C76.0999 6.29753 76.8756 6.90166 77.4948 7.65052L81.0183 4.13097C79.9312 2.83455 78.5728 1.79264 77.0388 1.07884C75.5049 0.365036 73.8329 -0.00324011 72.141 2.14763e-05C65.7455 2.14763e-05 60.7176 4.73432 60.7176 11.5763C60.7009 14.0072 61.456 16.3806 62.8742 18.3549C64.2925 20.3292 66.3006 21.8025 68.6095 22.5628C70.9185 23.323 73.4091 23.331 75.7229 22.5855C78.0366 21.84 80.0541 20.3795 81.4849 18.4143L77.9412 14.8747C77.3805 15.8086 76.5857 16.58 75.6355 17.1126C74.6852 17.6452 73.6124 17.9206 72.5231 17.9115Z" fill="white"/>
<path d="M37.9585 30.5538C37.9508 30.1376 38.0275 29.7241 38.1839 29.3384C38.3404 28.9526 38.5734 28.6026 38.8688 28.3094C39.1643 28.0162 39.5161 27.7859 39.903 27.6324C40.29 27.4789 40.704 27.4054 41.1201 27.4163C41.6449 27.4076 42.1626 27.5381 42.6204 27.7946C43.0783 28.0511 43.46 28.4244 43.7266 28.8765L43.3244 29.1098C43.1036 28.723 42.7828 28.4028 42.3957 28.1827C42.0086 27.9626 41.5694 27.8507 41.1241 27.8588C40.7617 27.8448 40.4002 27.9041 40.0613 28.0331C39.7223 28.1621 39.4129 28.3582 39.1516 28.6097C38.8902 28.8611 38.6823 29.1627 38.5403 29.4964C38.3983 29.8301 38.3251 30.1891 38.3251 30.5518C38.3251 30.9144 38.3983 31.2734 38.5403 31.6071C38.6823 31.9408 38.8902 32.2424 39.1516 32.4939C39.4129 32.7453 39.7223 32.9414 40.0613 33.0704C40.4002 33.1994 40.7617 33.2587 41.1241 33.2447C41.5745 33.2533 42.0187 33.1392 42.4091 32.9146C42.7996 32.6899 43.1215 32.3633 43.3404 31.9696L43.7427 32.2029C43.4778 32.6619 43.0949 33.0416 42.6337 33.3026C42.1726 33.5636 41.6499 33.6964 41.1201 33.6872C40.7043 33.6981 40.2907 33.6247 39.904 33.4715C39.5173 33.3183 39.1657 33.0883 38.8703 32.7955C38.5749 32.5027 38.3418 32.1532 38.1851 31.7679C38.0284 31.3826 37.9513 30.9696 37.9585 30.5538Z" fill="white"/>
<path d="M41.1202 33.9887C40.6589 34.0045 40.1992 33.9273 39.7684 33.7617C39.3376 33.5961 38.9446 33.3454 38.6127 33.0247C38.2808 32.704 38.0169 32.3197 37.8366 31.8949C37.6564 31.47 37.5635 31.0132 37.5635 30.5517C37.5635 30.0901 37.6564 29.6333 37.8366 29.2084C38.0169 28.7836 38.2808 28.3993 38.6127 28.0786C38.9446 27.7579 39.3376 27.5072 39.7684 27.3416C40.1992 27.176 40.6589 27.0988 41.1202 27.1146C41.6975 27.1068 42.2666 27.2515 42.7702 27.534C43.2737 27.8165 43.6938 28.2268 43.9881 28.7235L44.137 28.9849L43.1997 29.5199L43.0549 29.2464C42.8581 28.9095 42.5752 28.6309 42.2352 28.4394C41.8952 28.2478 41.5104 28.1501 41.1202 28.1563C40.7979 28.1431 40.4763 28.1952 40.1746 28.3094C39.873 28.4236 39.5975 28.5976 39.3648 28.821C39.1321 29.0443 38.947 29.3124 38.8205 29.6091C38.694 29.9059 38.6288 30.2251 38.6288 30.5476C38.6288 30.8702 38.694 31.1894 38.8205 31.4861C38.947 31.7828 39.1321 32.0509 39.3648 32.2743C39.5975 32.4976 39.873 32.6716 40.1746 32.7859C40.4763 32.9001 40.7979 32.9521 41.1202 32.9389C41.5155 32.9456 41.9052 32.8456 42.2485 32.6496C42.5918 32.4535 42.8759 32.1686 43.071 31.8247L43.2158 31.5472L44.149 32.0862L44.0082 32.3436C43.7182 32.8512 43.2971 33.2716 42.7891 33.561C42.2811 33.8504 41.7048 33.9981 41.1202 33.9887Z" fill="white"/>
<path d="M48.9117 27.9474H47.0011V33.5786H46.5345V27.9474H44.6279V27.5129H48.9157L48.9117 27.9474Z" fill="white"/>
<path d="M47.2989 33.8923H46.229V28.2489H44.3184V27.2112H49.2136V28.2489H47.2989V33.8923Z" fill="white"/>
<path d="M54.2817 29.3953C54.2879 29.6447 54.2431 29.8927 54.1501 30.1242C54.0571 30.3556 53.9179 30.5657 53.7409 30.7416C53.564 30.9174 53.353 31.0553 53.1209 31.1468C52.8888 31.2383 52.6406 31.2815 52.3912 31.2737H50.7823V33.5906H50.3237V27.5128H52.3912C52.6409 27.5051 52.8895 27.5484 53.1219 27.6402C53.3542 27.7319 53.5654 27.8702 53.7424 28.0464C53.9194 28.2227 54.0586 28.4332 54.1513 28.6652C54.244 28.8971 54.2884 29.1456 54.2817 29.3953ZM53.8232 29.3953C53.831 29.2044 53.7994 29.014 53.7304 28.8358C53.6615 28.6577 53.5565 28.4956 53.4222 28.3598C53.2879 28.2239 53.127 28.1172 52.9496 28.0462C52.7723 27.9753 52.5822 27.9416 52.3912 27.9473H50.7823V30.8393H52.3912C52.5803 30.8428 52.7681 30.8075 52.9431 30.7358C53.1181 30.664 53.2765 30.5572 53.4088 30.422C53.541 30.2868 53.6442 30.1259 53.712 29.9494C53.7798 29.7728 53.8108 29.5843 53.8031 29.3953H53.8232Z" fill="white"/>
<path d="M51.0639 33.8924H50.002V27.2112H52.3711C52.6656 27.1986 52.9595 27.2457 53.2353 27.3496C53.5111 27.4536 53.7629 27.6123 53.9758 27.8162C54.1886 28.02 54.3579 28.2649 54.4736 28.5359C54.5893 28.807 54.649 29.0986 54.649 29.3934C54.649 29.6881 54.5893 29.9797 54.4736 30.2508C54.3579 30.5219 54.1886 30.7667 53.9758 30.9706C53.7629 31.1744 53.5111 31.3331 53.2353 31.4371C52.9595 31.5411 52.6656 31.5881 52.3711 31.5755H51.0639V33.8924ZM51.0639 30.5377H52.3711C52.6629 30.5204 52.937 30.3923 53.1375 30.1796C53.338 29.9669 53.4496 29.6856 53.4496 29.3934C53.4496 29.1011 53.338 28.8198 53.1375 28.6071C52.937 28.3944 52.6629 28.2663 52.3711 28.249H51.0639V30.5377Z" fill="white"/>
<path d="M58.7259 32.0461H55.677L55.0857 33.5907H54.603L56.9641 27.5129H57.4509L59.8039 33.5907H59.3172L58.7259 32.0461ZM58.561 31.6117L57.2095 28.0761L55.854 31.6117H58.561Z" fill="white"/>
<path d="M60.2424 33.8923H59.1081L58.5169 32.3477H55.8902L55.299 33.8923H54.1606L56.7591 27.2112H57.6561L60.2424 33.8923ZM56.2925 31.3301H58.1307L57.2056 28.9167L56.2925 31.3301Z" fill="white"/>
<path d="M64.619 33.5907L62.8613 30.8837L61.1196 33.5907H60.5806L62.5917 30.4653L60.6811 27.5129H61.2121L62.8613 30.0591L64.5024 27.5129H65.0333L63.1307 30.4653L65.1419 33.5907H64.619Z" fill="white"/>
<path d="M65.6968 33.8923H64.4498L62.861 31.4346L61.2682 33.8923H60.0132L62.2335 30.4653L60.1258 27.2112H61.3727L62.861 29.5039L64.3372 27.2112H65.5841L63.4804 30.4653L65.6968 33.8923Z" fill="white"/>
<path d="M65.9463 30.5536C65.9455 29.9327 66.129 29.3255 66.4734 28.809C66.8178 28.2924 67.3078 27.8897 67.8812 27.6517C68.4547 27.4137 69.0859 27.3513 69.6949 27.4722C70.3038 27.5931 70.8632 27.892 71.3023 28.331C71.7413 28.7701 72.0402 29.3295 72.1611 29.9384C72.282 30.5474 72.2196 31.1786 71.9816 31.752C71.7436 32.3255 71.3409 32.8155 70.8243 33.1599C70.3077 33.5043 69.7006 33.6878 69.0797 33.687C68.6676 33.6891 68.2592 33.6095 67.8781 33.4528C67.497 33.2961 67.1507 33.0654 66.8593 32.774C66.5679 32.4826 66.3372 32.1363 66.1805 31.7552C66.0238 31.3741 65.9442 30.9656 65.9463 30.5536ZM71.7546 30.5536C71.7514 30.0252 71.5918 29.5097 71.296 29.0719C71.0002 28.6341 70.5813 28.2938 70.0923 28.0938C69.6032 27.8938 69.0659 27.8431 68.5481 27.9482C68.0303 28.0532 67.5552 28.3092 67.1827 28.6839C66.8102 29.0586 66.5571 29.5353 66.4552 30.0537C66.3533 30.5721 66.4072 31.1091 66.6101 31.597C66.813 32.0848 67.1558 32.5016 67.5954 32.7948C68.0349 33.088 68.5514 33.2445 69.0797 33.2445C69.4315 33.244 69.7796 33.1738 70.104 33.038C70.4285 32.9022 70.7228 32.7034 70.97 32.4532C71.2172 32.203 71.4124 31.9063 71.5443 31.5803C71.6762 31.2542 71.7422 30.9053 71.7385 30.5536H71.7546Z" fill="white"/>
<path d="M69.0636 33.9888C68.3832 33.9888 67.7182 33.787 67.1525 33.4089C66.5869 33.0309 66.1461 32.4935 65.8859 31.8649C65.6257 31.2362 65.5579 30.5445 65.6909 29.8773C65.8239 29.2101 66.1518 28.5973 66.6332 28.1165C67.1146 27.6357 67.7278 27.3084 68.3952 27.1762C69.0625 27.0439 69.7541 27.1126 70.3825 27.3735C71.0108 27.6345 71.5477 28.0759 71.9251 28.642C72.3025 29.2081 72.5035 29.8734 72.5027 30.5537C72.5076 31.0065 72.4219 31.4557 72.2508 31.8749C72.0796 32.2942 71.8264 32.6749 71.506 32.9949C71.1856 33.3149 70.8045 33.5677 70.3851 33.7384C69.9657 33.909 69.5164 33.9942 69.0636 33.9888ZM69.0636 28.1604C68.5896 28.1572 68.1253 28.2949 67.7296 28.5559C67.3339 28.817 67.0247 29.1896 66.8411 29.6266C66.6574 30.0637 66.6078 30.5454 66.6983 31.0107C66.7888 31.476 67.0154 31.904 67.3495 32.2403C67.6836 32.5766 68.11 32.8061 68.5747 32.8998C69.0394 32.9934 69.5214 32.947 69.9597 32.7663C70.3979 32.5857 70.7726 32.2789 71.0363 31.885C71.3 31.4911 71.4408 31.0278 71.4408 30.5537C71.4456 30.2395 71.3876 29.9274 71.27 29.6359C71.1525 29.3444 70.9778 29.0793 70.7563 28.8563C70.5348 28.6334 70.271 28.4569 69.9803 28.3374C69.6896 28.2179 69.3779 28.1577 69.0636 28.1604Z" fill="white"/>
<path d="M78.0821 31.9335C78.0827 32.1516 78.04 32.3677 77.9567 32.5692C77.8733 32.7708 77.7509 32.9539 77.5965 33.1079C77.4421 33.262 77.2587 33.3839 77.0569 33.4668C76.8552 33.5497 76.639 33.5918 76.4209 33.5907H73.7983V27.5129H76.2117C76.6385 27.5129 77.0477 27.6825 77.3494 27.9842C77.6512 28.2859 77.8207 28.6952 77.8207 29.1219C77.8249 29.3934 77.7543 29.6609 77.6167 29.895C77.4791 30.1291 77.2797 30.3209 77.0403 30.4493C77.3431 30.5633 77.6044 30.7659 77.7902 31.0306C77.9761 31.2954 78.0778 31.61 78.0821 31.9335ZM74.2609 27.9474V30.2723H76.2238C76.5321 30.2723 76.8278 30.1498 77.0458 29.9318C77.2638 29.7138 77.3863 29.4181 77.3863 29.1098C77.3863 28.8015 77.2638 28.5058 77.0458 28.2878C76.8278 28.0698 76.5321 27.9474 76.2238 27.9474H74.2609ZM77.6115 31.9335C77.6142 31.7733 77.5849 31.6143 77.5255 31.4655C77.466 31.3168 77.3776 31.1814 77.2653 31.0672C77.153 30.953 77.019 30.8623 76.8713 30.8004C76.7236 30.7385 76.565 30.7067 76.4048 30.7067H74.2448V33.1563H76.4048C76.5646 33.1563 76.7229 33.1246 76.8703 33.0629C77.0178 33.0013 77.1515 32.911 77.2638 32.7972C77.3761 32.6834 77.4646 32.5485 77.5243 32.4002C77.584 32.252 77.6136 32.0933 77.6115 31.9335Z" fill="white"/>
<path d="M76.4047 33.8923H73.4805V27.2112H76.2076C76.7108 27.2122 77.1931 27.4126 77.5489 27.7684C77.9047 28.1242 78.1051 28.6065 78.1062 29.1097C78.1083 29.3491 78.0628 29.5866 77.9724 29.8082C77.8819 30.0299 77.7483 30.2314 77.5792 30.4009C77.8264 30.5731 78.0285 30.8023 78.1685 31.069C78.3085 31.3357 78.3823 31.6322 78.3837 31.9334C78.3832 32.1922 78.3315 32.4483 78.2316 32.6871C78.1317 32.9258 77.9856 33.1425 77.8017 33.3245C77.6178 33.5066 77.3996 33.6505 77.1599 33.7479C76.9201 33.8453 76.6635 33.8944 76.4047 33.8923ZM74.5424 32.8586H76.4047C76.6501 32.8586 76.8854 32.7611 77.0589 32.5876C77.2324 32.4141 77.3299 32.1788 77.3299 31.9334C77.3299 31.6881 77.2324 31.4527 77.0589 31.2792C76.8854 31.1057 76.6501 31.0083 76.4047 31.0083H74.5424V32.8586ZM74.5424 29.9745H76.2076C76.4263 29.9596 76.6311 29.8622 76.7807 29.702C76.9303 29.5419 77.0135 29.3309 77.0135 29.1117C77.0135 28.8926 76.9303 28.6816 76.7807 28.5214C76.6311 28.3613 76.4263 28.2639 76.2076 28.2489H74.5424V29.9745Z" fill="white"/>
<path d="M83.146 32.0461H80.097L79.5058 33.5907H79.019L81.3802 27.5129H81.8669L84.2199 33.5907H83.7332L83.146 32.0461ZM82.981 31.6117L81.6336 28.0761L80.278 31.6117H82.981Z" fill="white"/>
<path d="M84.6624 33.8923H83.5281L82.9368 32.3477H80.3021L79.7108 33.8923H78.5806L81.175 27.2112H82.072L84.6624 33.8923ZM80.7084 31.3301H82.5426L81.6335 28.9167L80.7084 31.3301Z" fill="white"/>
<path d="M90.0002 27.5129V33.5907H89.5377V30.6825H86.002V33.5907H85.5435V27.5129H86.002V30.2481H89.5377V27.5129H90.0002Z" fill="white"/>
<path d="M90.2979 33.8923H89.236V30.9841H86.3037V33.8923H85.2378V27.2112H86.3037V29.9464H89.236V27.2112H90.2979V33.8923Z" fill="white"/>
<path d="M95.9411 28.3617L92.3451 33.5907H91.9429V27.5129H92.4055V32.742L95.9934 27.5129H96.3956V33.5907H95.9371L95.9411 28.3617Z" fill="white"/>
<path d="M96.6972 33.8923H95.6353V29.331L92.4979 33.8923H91.6411V27.2112H92.703V31.7725L95.8324 27.2112H96.6972V33.8923Z" fill="white"/>
<path d="M101.846 33.1563V33.5907H98.3467V27.5129H101.802V27.9474H98.8052V30.3085H101.585V30.7429H98.8052V33.1563H101.846Z" fill="white"/>
<path d="M102.143 33.8923H98.0444V27.2112H102.103V28.2489H99.1023V30.0067H101.882V31.0445H99.1023V32.8586H102.143V33.8923Z" fill="white"/>
<path d="M30.3808 0.547119H22.5171H7.83553L0 8.38265V8.4108H22.5171V19.5728L16.5399 24.6329L16.568 35.984L30.3687 23.563L30.236 23.4222H30.3808V8.4108V0.547119Z" fill="#E9561A"/>
<path d="M18.1971 19.1344H18.2534L19.2992 18.2415V11.2708H7.14771H0V19.1344V23.4223H0.293631L0.148827 23.5751L14.0058 36.0001L14.034 24.6451L7.47352 19.1344H14.8344H18.1971Z" fill="white"/>
<rect opacity="0.3" x="119" y="5" width="1" height="21" fill="white"/>
</svg>
