<svg width="18" height="18" viewBox="0 0 18 18" fill="none" xmlns="http://www.w3.org/2000/svg">
<path d="M16.7923 10.738L13.5923 9.13805C13.6619 7.32936 12.688 5.59023 10.9488 4.75544C9.20969 3.92066 7.19231 4.26849 5.87057 5.45109L8.93146 6.91196C9.8358 7.32935 10.2532 8.51196 9.8358 9.41631C9.4184 10.3207 8.23577 10.7381 7.33142 10.3207L4.27058 8.85979C4.20101 10.6685 5.17492 12.4076 6.91405 13.2424C8.65318 14.0772 10.6706 13.7294 11.9923 12.5467L15.1227 14.1467" stroke="#63A8E8" stroke-miterlimit="10" stroke-linecap="round" stroke-linejoin="round"/>
<path d="M9 17C13.4183 17 17 13.4183 17 9C17 4.58172 13.4183 1 9 1C4.58172 1 1 4.58172 1 9C1 13.4183 4.58172 17 9 17Z" stroke="#63A8E8" stroke-miterlimit="10" stroke-linecap="round" stroke-linejoin="round"/>
</svg>
