<svg width="18" height="18" viewBox="0 0 18 18" fill="none" xmlns="http://www.w3.org/2000/svg">
<path d="M6.09082 3.90909V1.72727C6.09082 1.29091 6.38173 1 6.81809 1H11.1817C11.6181 1 11.909 1.29091 11.909 1.72727V3.90909" stroke="#63A8E8" stroke-miterlimit="10" stroke-linecap="round" stroke-linejoin="round"/>
<path d="M6.81818 11.1829H1V4.63743C1 4.20107 1.29091 3.91016 1.72727 3.91016H16.2727C16.7091 3.91016 17 4.20107 17 4.63743V11.1829H11.1818" stroke="#63A8E8" stroke-miterlimit="10" stroke-linecap="round" stroke-linejoin="round"/>
<path d="M16.2725 13.3633V16.2724C16.2725 16.7087 15.9816 16.9996 15.5452 16.9996H2.45432C2.01796 16.9996 1.72705 16.7087 1.72705 16.2724V13.3633" stroke="#63A8E8" stroke-miterlimit="10" stroke-linecap="round" stroke-linejoin="round"/>
<path d="M11.182 9.72656H6.81836V12.6357H11.182V9.72656Z" stroke="#63A8E8" stroke-miterlimit="10" stroke-linecap="round" stroke-linejoin="round"/>
</svg>
