<svg width="28" height="28" viewBox="0 0 28 28" fill="none" xmlns="http://www.w3.org/2000/svg">
<mask id="mask0_270_29255" style="mask-type:alpha" maskUnits="userSpaceOnUse" x="0" y="0" width="28" height="28">
<path d="M14 28C21.732 28 28 21.732 28 14C28 6.26801 21.732 0 14 0C6.26801 0 0 6.26801 0 14C0 21.732 6.26801 28 14 28Z" fill="#F7D259"/>
</mask>
<g mask="url(#mask0_270_29255)">
<path d="M14 28C21.732 28 28 21.732 28 14C28 6.26801 21.732 0 14 0C6.26801 0 0 6.26801 0 14C0 21.732 6.26801 28 14 28Z" fill="#FFD13A"/>
<path d="M13.6322 7.47324C12.662 7.375 11.6672 7.70658 10.8936 8.28377C10.083 8.88553 9.5304 9.75746 9.2111 10.7031C8.89181 11.6855 8.81812 12.7785 9.03917 13.7855C9.24794 14.7311 9.80058 15.5417 10.6111 16.0697C12.1216 17.0645 14.2462 17.1259 15.8795 16.3768C16.7515 15.9715 17.4637 15.2838 17.8444 14.3996C18.262 13.4417 18.3971 12.3118 18.3234 11.2803C18.2497 10.2855 17.9181 9.27851 17.2427 8.52939C16.6409 7.86623 15.7567 7.39956 14.8479 7.375C14.6269 7.375 14.3936 7.39956 14.1848 7.44868C13.9515 7.49781 14.0497 7.85395 14.283 7.80482C15.0936 7.62061 15.9532 7.90307 16.5918 8.41886C17.3041 8.99605 17.7216 9.83114 17.8936 10.7276C18.0778 11.6855 17.9918 12.7048 17.7339 13.6382C17.4883 14.5346 16.9971 15.3083 16.1988 15.7996C14.8111 16.6838 12.8585 16.7575 11.3725 16.0697C10.6111 15.7136 9.96022 15.1364 9.61637 14.3627C9.23566 13.4785 9.22338 12.4224 9.40759 11.489C9.57952 10.5803 9.97251 9.69605 10.6234 9.02061C11.2374 8.38202 12.0848 7.91535 12.969 7.82939C13.19 7.80483 13.4234 7.80483 13.6444 7.82939C13.8655 7.86623 13.8655 7.49781 13.6322 7.47324Z" fill="white"/>
<path d="M12.0003 6.43911C11.7916 5.97245 11.2635 5.67771 10.7477 5.72683C10.2442 5.77596 9.80208 6.16894 9.67928 6.67244C9.64243 6.79525 9.64243 6.93034 9.64243 7.05315C9.64243 7.18823 9.67928 7.3356 9.63016 7.47069C9.55647 7.72858 9.20033 7.72859 8.99156 7.80227C8.57401 7.94964 8.27928 8.30578 8.14419 8.72332C7.98454 9.20227 8.0705 9.73034 8.3898 10.1233C8.40208 10.0251 8.41436 9.92683 8.42664 9.82859C7.80033 10.283 7.06349 10.8724 7.14945 11.7444C7.16173 11.9163 7.21086 12.0882 7.3091 12.2356C7.41963 12.4075 7.60384 12.5303 7.71436 12.7023C7.86173 12.9479 7.73893 13.2426 7.64068 13.476C7.41963 14.0163 7.07577 14.6426 7.55472 15.1584C7.75121 15.3672 8.0091 15.49 8.25472 15.6374C8.36524 15.6988 8.47577 15.7724 8.56173 15.8707C8.67226 15.9935 8.69682 16.1409 8.67226 16.3128C8.65998 16.497 8.62314 16.6567 8.65998 16.8409C8.69682 17.0128 8.7705 17.1724 8.88103 17.3198C9.0898 17.59 9.4091 17.7865 9.76524 17.811C9.92489 17.8233 10.0723 17.7988 10.2196 17.7496C10.3916 17.6882 10.6003 17.5409 10.7968 17.59C11.0424 17.6391 11.1407 17.9584 11.2389 18.1549C11.3495 18.4005 11.4845 18.6584 11.7302 18.7935C12.0126 18.9531 12.3319 18.8917 12.6021 18.7567C12.8723 18.6216 13.1179 18.4251 13.4126 18.3268C13.7933 18.204 14.0758 18.4251 14.3582 18.6339C14.6284 18.8303 14.9109 18.9531 15.2547 18.99C15.574 19.0268 15.9056 18.9654 16.2003 18.8303C16.4828 18.7075 16.7407 18.5233 16.9249 18.29C17.0231 18.1672 17.0968 18.0444 17.1582 17.897C17.2319 17.7251 17.2442 17.5286 17.3302 17.3689C17.4161 17.197 17.6003 17.197 17.7723 17.1847C17.9565 17.1724 18.1407 17.1479 18.3126 17.0865C18.6442 16.9514 18.9389 16.7058 19.1109 16.3865C19.3196 16.0181 19.3073 15.6619 19.2705 15.2567C19.2337 14.8882 19.2951 14.5935 19.4793 14.2742C19.7863 13.7461 20.2652 13.3163 20.474 12.7268C20.5723 12.4567 20.5845 12.1496 20.4863 11.8795C20.3635 11.5356 20.0933 11.2777 19.86 10.983C19.6021 10.6514 19.5407 10.2953 19.6144 9.87771C19.688 9.47245 19.8354 9.07946 19.8231 8.66192C19.7986 8.02332 19.4179 7.37244 18.6933 7.47069C18.5705 7.49525 18.3372 7.58122 18.2144 7.50753C18.0916 7.42157 18.153 7.16367 18.153 7.05315C18.153 6.73385 18.0302 6.42683 17.8214 6.18122C17.4407 5.70227 16.7652 5.41981 16.1635 5.56718C15.8073 5.65315 15.574 5.94789 15.2302 6.04613C14.8617 6.15666 14.5916 5.76367 14.3337 5.56718C13.8179 5.18648 13.1056 5.32157 12.6635 5.75139C12.4424 5.96016 12.3196 6.24262 12.2951 6.53736C12.2828 6.77069 12.6512 6.77069 12.6635 6.53736C12.7003 5.99701 13.3266 5.61631 13.8302 5.72683C14.1372 5.80052 14.3337 6.07069 14.5793 6.2549C14.874 6.46367 15.2179 6.47595 15.5372 6.30402C15.8196 6.15665 16.053 5.92332 16.3845 5.88648C16.667 5.86192 16.9372 5.9356 17.1705 6.08297C17.4038 6.21806 17.6003 6.43911 17.6986 6.68473C17.7477 6.81981 17.7723 6.96718 17.76 7.11455C17.76 7.28648 17.7354 7.47069 17.8337 7.63034C18.0302 7.9742 18.4109 7.87596 18.7302 7.82683C19.0126 7.77771 19.2091 7.92508 19.3319 8.18297C19.6389 8.87069 19.16 9.58297 19.1968 10.2953C19.2214 10.676 19.381 10.9707 19.6144 11.2654C19.8231 11.5233 20.081 11.7567 20.1547 12.1005C20.2775 12.6409 19.8231 13.1444 19.5161 13.5374C19.3442 13.7707 19.16 14.004 19.0372 14.2742C18.8898 14.5935 18.8407 14.9005 18.8775 15.2444C18.9144 15.6251 18.9266 15.9689 18.6933 16.3005C18.5091 16.5584 18.2144 16.7549 17.8951 16.7917C17.5389 16.8409 17.1459 16.804 16.9617 17.197C16.888 17.3567 16.8635 17.5163 16.8144 17.676C16.7652 17.811 16.6916 17.9338 16.6056 18.0444C16.2495 18.4742 15.6354 18.7075 15.0828 18.5847C14.7512 18.511 14.5179 18.29 14.2477 18.1181C13.9652 17.9338 13.6459 17.8479 13.3144 17.9461C13.0196 18.0321 12.774 18.2163 12.5161 18.3514C12.3073 18.4742 12.0372 18.597 11.8161 18.4251C11.6196 18.2654 11.5337 17.9953 11.4231 17.7742C11.3126 17.5531 11.153 17.3321 10.9073 17.2461C10.5389 17.111 10.2442 17.3812 9.90033 17.4426C9.60559 17.4917 9.29857 17.3321 9.12664 17.0988C9.04068 16.9882 8.97928 16.8531 8.967 16.7181C8.94243 16.5093 9.01612 16.3128 9.00384 16.104C8.97927 15.8093 8.79506 15.6005 8.57401 15.4409C8.16875 15.1584 7.51787 14.9865 7.65296 14.3602C7.77577 13.8321 8.21787 13.3286 8.08278 12.7514C7.99682 12.4075 7.65296 12.2479 7.53015 11.9409C7.39506 11.6093 7.51787 11.2286 7.70209 10.9461C7.92314 10.6268 8.25471 10.3812 8.57401 10.1602C8.67226 10.0865 8.69682 9.96367 8.61085 9.86543C8.15647 9.33736 8.43892 8.3549 9.10208 8.14613C9.31085 8.08472 9.53191 8.04788 9.71612 7.9128C9.91261 7.76543 9.97401 7.54438 9.97401 7.31104C9.97401 7.07771 9.93717 6.85666 10.0231 6.64789C10.1091 6.45139 10.2565 6.27946 10.453 6.18122C10.8951 5.94788 11.4354 6.1935 11.6319 6.62332C11.7793 6.84438 12.0986 6.66016 12.0003 6.43911Z" fill="white"/>
<path d="M9.52975 18.3976C8.91572 20.1169 8.19116 21.7871 7.36835 23.4082C7.29467 23.5433 7.41748 23.7275 7.57713 23.6783C8.37537 23.4082 9.14905 23.052 9.86134 22.6099C9.77537 22.5731 9.67712 22.5362 9.59116 22.4994C9.71397 23.2362 9.95958 23.9485 10.2912 24.6117C10.328 24.6854 10.4262 24.7099 10.4999 24.6976C10.7947 24.6485 10.942 24.3783 11.0648 24.1327C11.2368 23.7889 11.4087 23.4573 11.5684 23.1134C11.8877 22.438 12.2069 21.7503 12.5017 21.0626C12.5999 20.8415 12.2806 20.6573 12.1824 20.8783C11.9122 21.5169 11.6175 22.1433 11.3227 22.7573C11.1754 23.0643 11.028 23.3713 10.8806 23.6783C10.8069 23.8257 10.7455 23.9608 10.6596 24.1082C10.5982 24.2187 10.5245 24.3292 10.4017 24.3415C10.4754 24.3661 10.5368 24.4029 10.6105 24.4275C10.2789 23.7889 10.0578 23.1134 9.9473 22.4012C9.92274 22.2783 9.77537 22.2292 9.67712 22.2906C8.98941 22.7205 8.25257 23.0643 7.47888 23.3222C7.55257 23.4082 7.61397 23.5064 7.68765 23.5924C8.52274 21.9345 9.25958 20.2398 9.8859 18.4959C9.97186 18.2626 9.61572 18.1766 9.52975 18.3976Z" fill="white"/>
<path d="M12.5757 20.4379C12.6862 20.2291 12.7845 20.0326 12.895 19.8239C12.9441 19.7256 13.0055 19.6274 13.0546 19.5291C13.0792 19.48 13.1038 19.4309 13.1283 19.3817C13.1406 19.3572 13.1529 19.3326 13.1652 19.3081C13.1529 19.3203 13.1529 19.3203 13.1652 19.3081C13.1406 19.3326 13.1038 19.3449 13.0669 19.3326C13.0424 19.3203 13.0178 19.2958 12.981 19.2835C12.9441 19.2467 12.9318 19.1975 12.9441 19.1484C12.981 19.087 12.9932 19.0747 12.9687 19.0993C12.9932 19.087 13.0178 19.0625 13.0546 19.0502C13.0669 19.0502 13.0792 19.0502 13.0915 19.0502C13.1283 19.0625 13.1529 19.0624 13.1897 19.0747C13.202 19.087 13.202 19.087 13.2143 19.0993C13.1529 19.0256 13.0178 19.0379 12.9564 19.0993C12.8827 19.173 12.895 19.2835 12.9564 19.3572C13.0301 19.4432 13.1775 19.4432 13.2511 19.3572C13.3248 19.2835 13.3371 19.1607 13.288 19.0747C13.2143 18.9642 13.0669 18.9519 12.9687 19.0133C12.8827 19.0624 12.8459 19.1607 12.7968 19.2467C12.6248 19.5782 12.4406 19.9098 12.2687 20.2537C12.2196 20.3396 12.2441 20.4625 12.3301 20.5116C12.4161 20.5607 12.5266 20.5361 12.5757 20.4379Z" fill="white"/>
<path d="M15.9535 19.5494C15.8921 19.6231 15.8798 19.6722 15.9289 19.7214C15.9412 19.7336 15.9412 19.7459 15.9535 19.7582C15.978 19.8073 16.0026 19.8442 16.0272 19.8933C16.0763 19.9915 16.1377 20.0898 16.1868 20.2003C16.285 20.3845 16.3956 20.5687 16.4938 20.7529C16.7149 21.1459 16.9482 21.5266 17.1815 21.9073C17.6482 22.6687 18.1394 23.4056 18.6675 24.1179C18.7535 24.2284 18.9745 24.2529 18.9991 24.0687C19.085 23.5284 19.171 23.0003 19.2447 22.46C19.171 22.4968 19.0973 22.5459 19.0236 22.5828C19.7482 22.8284 20.5096 22.9512 21.271 22.9512C21.3815 22.9512 21.4921 22.8284 21.4429 22.7179C21.1236 21.8705 20.6447 21.1091 20.0184 20.4582C19.8587 20.2863 19.5886 20.5442 19.7605 20.7161C20.3377 21.3179 20.7921 22.0301 21.0991 22.8161C21.1605 22.7424 21.2219 22.6565 21.271 22.5828C20.5342 22.5828 19.8096 22.4722 19.1219 22.2266C19.0359 22.2021 18.9131 22.2635 18.9008 22.3494C18.8149 22.8898 18.7289 23.4179 18.6552 23.9582C18.7658 23.9459 18.8763 23.9336 18.9868 23.9091C18.3359 23.0003 17.7096 22.067 17.1447 21.1091C16.8622 20.6301 16.5921 20.1512 16.3342 19.66C16.2359 19.4758 16.1008 19.2547 15.8552 19.3038C15.6342 19.3529 15.5482 19.6108 15.6956 19.7828C15.8429 19.9915 16.1008 19.7336 15.9535 19.5494Z" fill="white"/>
<path d="M19.5625 19.872C19.2678 19.3684 18.9731 18.8527 18.6783 18.3492C18.6046 18.2263 18.531 18.1035 18.4696 17.9807C18.3959 17.8579 18.3222 17.6983 18.1503 17.7474C18.0152 17.7842 17.9292 17.9562 18.0029 18.079C18.0643 18.2018 18.1994 18.2263 18.3222 18.2018C18.5555 18.1527 18.4573 17.7965 18.2239 17.8456C18.2362 17.8456 18.2485 17.8456 18.2608 17.8456C18.2853 17.8702 18.3099 17.8948 18.3222 17.907C18.3222 17.9439 18.3222 17.9685 18.3222 18.0053C18.3222 17.993 18.3222 17.993 18.3345 17.9807C18.3222 18.0053 18.2976 18.0299 18.2854 18.0667C18.2485 18.079 18.2239 18.079 18.1871 18.0913H18.1994C18.1625 18.079 18.138 18.079 18.1011 18.0667L18.1134 18.079C18.0889 18.0544 18.0643 18.0299 18.052 18.0176C18.445 18.693 18.838 19.3685 19.2432 20.0439C19.3661 20.2527 19.6853 20.0684 19.5625 19.872Z" fill="white"/>
</g>
</svg>
