<svg width="28" height="28" viewBox="0 0 28 28" fill="none" xmlns="http://www.w3.org/2000/svg">
<mask id="mask0_270_29163" style="mask-type:alpha" maskUnits="userSpaceOnUse" x="0" y="0" width="28" height="28">
<path d="M14 28C21.732 28 28 21.732 28 14C28 6.26801 21.732 0 14 0C6.26801 0 0 6.26801 0 14C0 21.732 6.26801 28 14 28Z" fill="#4EA8EE"/>
</mask>
<g mask="url(#mask0_270_29163)">
<path d="M14 28C21.732 28 28 21.732 28 14C28 6.26801 21.732 0 14 0C6.26801 0 0 6.26801 0 14C0 21.732 6.26801 28 14 28Z" fill="#03A9F4"/>
<path d="M10.8433 5.33028C9.92222 5.6373 9.01345 5.99344 8.12924 6.3987C7.68714 6.59519 7.25731 6.80396 6.82749 7.0373C6.47134 7.23379 6.13977 7.49168 6.04152 7.90923C5.94328 8.35133 6.09065 8.80572 6.20117 9.22327C6.32398 9.72677 6.44679 10.2303 6.56959 10.7338C6.81521 11.7285 7.06082 12.7233 7.30644 13.7057C7.80994 15.6952 8.33801 17.6847 8.87836 19.6741C9.14854 20.6443 9.38188 21.6268 9.68889 22.597C9.8117 23.0022 10.0573 23.3092 10.4749 23.432C10.8924 23.5671 11.3713 23.5303 11.8012 23.4812C12.2924 23.4198 12.7713 23.297 13.2626 23.1619C13.7538 23.0391 14.245 22.904 14.7363 22.7812C15.7433 22.5233 16.7503 22.2531 17.7573 21.9952C18.0029 21.9338 18.2485 21.8724 18.4942 21.7987C18.7275 21.7373 18.6292 21.3812 18.3959 21.4426C16.4924 21.9461 14.5889 22.4619 12.6731 22.9285C12.2187 23.0391 11.752 23.1373 11.2731 23.1496C10.917 23.1619 10.438 23.1496 10.1924 22.8303C10.0696 22.6706 10.0328 22.4619 9.97135 22.2777C9.90995 22.0443 9.83626 21.811 9.77485 21.5777C9.63977 21.111 9.51696 20.6443 9.38188 20.1776C8.3503 16.4075 7.36784 12.625 6.47135 8.818C6.36082 8.36361 6.28714 7.89695 6.6924 7.56537C6.87661 7.418 7.08539 7.31975 7.29416 7.22151C7.51521 7.11098 7.74854 7.00046 7.9696 6.88993C8.93977 6.43555 9.92222 6.04256 10.9415 5.6987C11.1626 5.61274 11.0643 5.2566 10.8433 5.33028Z" fill="white"/>
<path d="M19.5273 21.124C19.5151 21.124 19.4905 21.124 19.4782 21.124C19.2449 21.124 19.2449 21.4924 19.4782 21.4924C19.4905 21.4924 19.5151 21.4924 19.5273 21.4924C19.7607 21.4924 19.7607 21.124 19.5273 21.124C19.5151 21.124 19.4905 21.124 19.4782 21.124C19.2449 21.124 19.2449 21.4924 19.4782 21.4924C19.4905 21.4924 19.5151 21.4924 19.5273 21.4924C19.7607 21.4924 19.7607 21.124 19.5273 21.124Z" fill="white"/>
<path d="M20.4108 21.1078C20.9389 20.9973 21.4301 20.7394 21.8231 20.3587C21.8723 20.3096 21.8845 20.2359 21.8722 20.1745C21.0372 17.5955 20.1898 15.0166 19.3301 12.4499C18.9003 11.1604 18.4582 9.88324 18.0161 8.60605C17.7951 7.97974 17.574 7.34114 17.3529 6.71482C17.1442 6.13763 16.9722 5.52359 16.7144 4.95868C16.6038 4.71307 16.4565 4.49201 16.2354 4.33236C15.9898 4.14815 15.6951 4.13588 15.4003 4.19728C14.6512 4.35693 13.9021 4.57798 13.1529 4.77447C12.9196 4.83587 13.0179 5.19201 13.2512 5.13061C13.8898 4.95868 14.5407 4.79903 15.1793 4.6271C15.4372 4.5657 15.7319 4.44289 15.9775 4.60254C16.1617 4.71307 16.2845 4.90956 16.3705 5.10605C16.4933 5.36395 16.567 5.63412 16.6652 5.89202C16.7758 6.19903 16.874 6.50605 16.9845 6.81307C17.1933 7.4271 17.4144 8.04114 17.6231 8.64289C18.4705 11.1113 19.3056 13.5797 20.1284 16.0604C20.5951 17.4604 21.0494 18.8604 21.5038 20.2727C21.5161 20.2113 21.5407 20.1499 21.5529 20.0885C21.1968 20.4201 20.7793 20.6411 20.3003 20.7394C20.0793 20.8008 20.1775 21.1569 20.4108 21.1078Z" fill="white"/>
<path d="M12.4282 5.17056C12.465 5.69863 12.551 6.21442 12.6983 6.73021C12.772 6.96354 12.858 7.1846 12.9439 7.41793C12.9562 7.44249 12.9685 7.47934 12.9808 7.5039C13.0176 7.45477 13.0053 7.43021 12.9439 7.45478C12.8948 7.44249 12.8211 7.46705 12.7843 7.46705C12.6615 7.47933 12.5387 7.5039 12.4159 7.54074C11.9246 7.67583 11.4457 7.92144 10.979 8.11793C10.451 8.33899 9.93517 8.56004 9.4071 8.78109C9.49306 8.81793 9.59131 8.85477 9.67727 8.89162C9.48078 8.31442 9.28429 7.72495 9.0878 7.14776C9.01412 6.92671 8.65797 7.02495 8.73166 7.246C8.92815 7.8232 9.12465 8.41267 9.32114 8.98986C9.35798 9.11267 9.48078 9.14951 9.59131 9.10039C10.1317 8.86706 10.672 8.63372 11.2124 8.41267C11.7159 8.19162 12.2439 7.90916 12.7966 7.83547C13.0176 7.79863 13.3246 7.83548 13.3492 7.54074C13.3615 7.43021 13.3001 7.31968 13.2632 7.22144C13.2141 7.08635 13.165 6.95127 13.1159 6.82846C12.9317 6.30039 12.8334 5.74776 12.7966 5.18285C12.7843 4.93723 12.4159 4.93723 12.4282 5.17056Z" fill="white"/>
<path d="M9.19951 11.8247C10.3539 11.4194 11.5206 11.0018 12.6749 10.5966C12.896 10.5229 12.7978 10.1668 12.5767 10.2404C11.4223 10.6457 10.2556 11.0633 9.10126 11.4685C8.88021 11.5545 8.96618 11.9106 9.19951 11.8247Z" fill="white"/>
<path d="M9.81148 12.6956C10.6588 12.4009 11.5062 12.1062 12.3536 11.8114C12.5746 11.7377 12.4764 11.3816 12.2553 11.4553C11.408 11.75 10.5606 12.0448 9.71322 12.3395C9.49217 12.4132 9.59042 12.7693 9.81148 12.6956Z" fill="white"/>
<path d="M13.8896 9.98454C14.0738 10.181 14.2457 10.3775 14.4299 10.574C14.5159 10.66 14.5896 10.7705 14.7124 10.8073C14.8352 10.8442 14.958 10.7951 15.044 10.7091C15.1176 10.6354 15.1668 10.5249 15.1913 10.4266C15.2282 10.3038 15.2773 10.181 15.3141 10.0582C15.4001 9.80033 15.4861 9.55472 15.5597 9.29682C15.5966 9.19858 15.5229 9.10033 15.4369 9.07577C15.3387 9.05121 15.2404 9.11261 15.2159 9.19858C15.179 9.28454 15.1545 9.35823 15.1176 9.44419C15.0808 9.54244 15.1545 9.64068 15.2404 9.66525C15.3387 9.68981 15.4369 9.6284 15.4615 9.54244C15.4983 9.45647 15.5229 9.38279 15.5597 9.29682C15.4369 9.25998 15.3264 9.23542 15.2036 9.19858C15.1299 9.40735 15.0562 9.6284 14.9948 9.83717C14.958 9.9477 14.9211 10.0582 14.8843 10.1688C14.872 10.2179 14.8475 10.2793 14.8352 10.3284C14.8229 10.3775 14.8229 10.3775 14.7983 10.4144C14.7861 10.4266 14.7861 10.4512 14.7738 10.4635C14.7861 10.4512 14.7861 10.4512 14.7738 10.4635C14.7615 10.4758 14.7615 10.4758 14.7738 10.4635C14.7615 10.4758 14.7492 10.4758 14.7615 10.4635C14.7738 10.4635 14.7738 10.4635 14.7861 10.4635C14.7983 10.4635 14.8106 10.4881 14.7861 10.4635C14.7369 10.4144 14.651 10.3161 14.6018 10.2547C14.4422 10.0828 14.2948 9.91086 14.1352 9.73893C14.0738 9.66524 13.9387 9.66524 13.8773 9.73893C13.8159 9.80033 13.8282 9.91086 13.8896 9.98454Z" fill="white"/>
<path d="M10.1927 14.3522C10.1927 14.3522 10.1927 14.3645 10.2049 14.3645C10.2172 14.2908 10.2295 14.2171 10.2295 14.1434C10.2786 14.1312 10.34 14.1311 10.3891 14.1189C10.4137 14.1557 10.4505 14.1926 10.4751 14.2294V14.2171C10.4628 14.2662 10.4628 14.3154 10.4505 14.3645C10.3891 14.389 10.3891 14.4013 10.4505 14.389C10.4874 14.389 10.512 14.389 10.5488 14.3768C10.5979 14.3768 10.647 14.3645 10.6962 14.3645C10.8067 14.3522 10.9295 14.3399 11.04 14.3154C11.2734 14.2785 11.4944 14.2294 11.7155 14.168C11.9365 14.1066 12.1576 14.0329 12.3786 13.9469C12.4891 13.8978 12.5874 13.861 12.6979 13.8119C12.7716 13.775 13.2137 13.5908 13.0786 13.4557C13.0909 13.5048 13.1155 13.5417 13.1277 13.5908C13.1277 13.5785 13.1277 13.5785 13.1277 13.5662C13.1155 13.468 13.0541 13.382 12.9435 13.382C12.8576 13.382 12.747 13.468 12.7593 13.5662C12.7839 13.7627 12.9927 13.8733 13.1523 13.7259C13.2997 13.6031 13.2137 13.382 13.0541 13.3206C12.8698 13.2592 12.6611 13.4311 12.4891 13.5048C12.2804 13.6031 12.0716 13.6768 11.8628 13.7504C11.433 13.8855 10.9909 13.9838 10.5488 14.0206C10.3769 14.0329 10.1067 14.0329 10.1067 14.2785C10.1067 14.4627 10.3646 14.5733 10.4874 14.4136C10.5365 14.3522 10.5611 14.2662 10.512 14.1926C10.512 14.1926 10.512 14.1803 10.4997 14.1803C10.3769 13.9592 10.0576 14.1434 10.1927 14.3522Z" fill="white"/>
<path d="M10.6481 15.2897C11.4341 14.9949 12.2446 14.737 13.0552 14.5283C13.2885 14.4669 13.1902 14.1107 12.9569 14.1721C12.1464 14.3809 11.3359 14.6388 10.5499 14.9335C10.3288 15.0195 10.4271 15.3756 10.6481 15.2897Z" fill="white"/>
<path d="M14.798 12.391C14.9208 12.87 15.2401 13.2875 15.6822 13.5209C15.7928 13.5823 15.9156 13.5209 15.9524 13.4103C16.0998 13.0174 16.2471 12.6244 16.3945 12.2314C16.4314 12.1331 16.3577 12.0349 16.2717 12.0103C16.1735 11.9858 16.0752 12.0472 16.0507 12.1331C15.9033 12.5261 15.7559 12.9191 15.6085 13.3121C15.6945 13.2753 15.7928 13.2384 15.8787 13.2016C15.8296 13.177 15.7805 13.1524 15.7436 13.1156C15.7191 13.1033 15.7068 13.091 15.6822 13.0665C15.6577 13.0419 15.7191 13.091 15.6699 13.0542C15.6577 13.0419 15.6454 13.0419 15.6454 13.0296C15.5594 12.956 15.4857 12.8823 15.4243 12.7963C15.4366 12.8086 15.3998 12.7717 15.3998 12.7595C15.3875 12.7349 15.3752 12.7226 15.3629 12.6981C15.3384 12.6489 15.3138 12.6121 15.2893 12.563C15.277 12.5384 15.2647 12.5139 15.2524 12.4893C15.2647 12.5016 15.2524 12.4893 15.2524 12.477C15.2524 12.4647 15.2401 12.4524 15.2401 12.4402C15.2156 12.391 15.2033 12.3296 15.191 12.2805C15.1664 12.1823 15.0559 12.1209 14.97 12.1577C14.8226 12.1823 14.7735 12.2928 14.798 12.391Z" fill="white"/>
<path d="M15.7197 16.0857C16.0512 16.2944 16.3828 16.5155 16.7144 16.7243C16.8126 16.7857 16.96 16.7243 16.9846 16.6137C17.0951 16.0734 17.2056 15.533 17.3284 14.9804C17.353 14.8822 17.3039 14.7839 17.2056 14.7594C17.1197 14.7348 16.9968 14.7962 16.9846 14.8822C16.874 15.4225 16.7635 15.9629 16.6407 16.5155C16.7267 16.4787 16.8249 16.4418 16.9109 16.405C16.5793 16.1962 16.2477 15.9752 15.9161 15.7664C15.7074 15.6313 15.5232 15.9506 15.7197 16.0857Z" fill="white"/>
<path d="M11.2252 17.2429C11.6795 17.0832 12.1339 16.9236 12.576 16.7762C12.7971 16.7025 13.0181 16.6166 13.2392 16.5429C13.3497 16.5061 13.4602 16.4692 13.5708 16.4324C13.6199 16.4201 13.669 16.3955 13.7304 16.3832C13.755 16.371 13.7918 16.3587 13.8164 16.3587C13.9024 16.3464 13.9146 16.2727 13.8532 16.1499C13.6199 16.2113 13.7181 16.5675 13.9515 16.506C14.2339 16.4324 14.1602 16.0394 13.9024 15.9903C13.7673 15.9657 13.6199 16.0394 13.4971 16.0762C13.3374 16.1376 13.1778 16.1868 13.0059 16.2482C12.3795 16.4692 11.7409 16.6903 11.1146 16.9113C10.9059 16.9604 11.0041 17.3166 11.2252 17.2429Z" fill="white"/>
<path d="M11.7283 18.2239C12.5756 17.8924 13.423 17.5731 14.2704 17.2415C14.4914 17.1555 14.3932 16.7994 14.1721 16.8854C13.3248 17.2169 12.4774 17.5362 11.63 17.8678C11.4212 17.9538 11.5072 18.3099 11.7283 18.2239Z" fill="white"/>
</g>
</svg>
