<svg width="18" height="15" viewBox="0 0 18 15" fill="none" xmlns="http://www.w3.org/2000/svg">
<path d="M16.8217 8.47525L14.7307 5.68728L13.3367 2.06292C13.1276 1.50532 12.6398 1.22652 12.0125 1.15682C9.9215 0.947726 8.03962 0.947726 6.08804 1.15682C5.53044 1.22652 4.97283 1.50532 4.76374 2.06292L3.36975 5.68728L1.27877 8.47525C1.06967 8.68435 1 9.03284 1 9.31164V12.3087V13.7027C1 14.1209 1.2788 14.3997 1.69699 14.3997H2.39399C2.81218 14.3997 3.09098 14.1209 3.09098 13.7027V12.3087H14.9399V13.7027C14.9399 14.1209 15.2187 14.3997 15.6368 14.3997H16.3338C16.752 14.3997 17.0308 14.1209 17.0308 13.7027V12.3087V9.31164C17.1005 9.03284 17.0308 8.75405 16.8217 8.47525Z" stroke="#63A8E8" stroke-miterlimit="10" stroke-linecap="round" stroke-linejoin="round"/>
<path d="M12.918 10.2182H14.4514C14.7999 10.2182 15.0089 9.93941 15.0089 9.66061V8.82422" stroke="#63A8E8" stroke-miterlimit="10" stroke-linecap="round" stroke-linejoin="round"/>
<path d="M5.25113 10.2182H3.71774C3.36925 10.2182 3.16016 9.93941 3.16016 9.66061V9.52121V8.82422" stroke="#63A8E8" stroke-miterlimit="10" stroke-linecap="round" stroke-linejoin="round"/>
<path d="M3.15967 6.03906C7.34162 6.03906 10.1296 6.03906 15.0085 6.03906" stroke="#63A8E8" stroke-miterlimit="10" stroke-linecap="round" stroke-linejoin="round"/>
<path d="M3.16129 6.03461H1.76731C1.34911 6.03461 1.07031 5.75581 1.07031 5.33762C1.07031 4.91942 1.34911 4.64062 1.76731 4.64062H3.85828L3.16129 6.03461Z" stroke="#63A8E8" stroke-miterlimit="10" stroke-linecap="round" stroke-linejoin="round"/>
<path d="M15.0095 6.03461H16.4035C16.8217 6.03461 17.1005 5.75581 17.1005 5.33762C17.1005 4.91942 16.8217 4.64062 16.4035 4.64062H14.3125L15.0095 6.03461Z" stroke="#63A8E8" stroke-miterlimit="10" stroke-linecap="round" stroke-linejoin="round"/>
</svg>
