<svg width="28" height="28" viewBox="0 0 28 28" fill="none" xmlns="http://www.w3.org/2000/svg">
<mask id="mask0_270_29212" style="mask-type:alpha" maskUnits="userSpaceOnUse" x="0" y="0" width="28" height="28">
<path d="M14 28C21.732 28 28 21.732 28 14C28 6.26801 21.732 0 14 0C6.26801 0 0 6.26801 0 14C0 21.732 6.26801 28 14 28Z" fill="#EC6C2C"/>
</mask>
<g mask="url(#mask0_270_29212)">
<path d="M14 28C21.732 28 28 21.732 28 14C28 6.26801 21.732 0 14 0C6.26801 0 0 6.26801 0 14C0 21.732 6.26801 28 14 28Z" fill="#FF6200"/>
<path d="M9.04927 18.0797C9.12295 18.6938 9.19664 19.3078 9.27032 19.9341C9.30716 20.2166 9.31945 20.5113 9.38085 20.7938C9.42997 21.0148 9.51594 21.2359 9.70015 21.3833C9.89664 21.5429 10.1545 21.6166 10.3879 21.678C10.6335 21.7517 10.9037 21.7762 11.1493 21.678C11.5545 21.5183 11.8002 21.1131 11.9475 20.7201C12.1809 20.1061 12.2545 19.4306 12.23 18.7675C12.2177 18.5341 11.8493 18.5341 11.8616 18.7675C11.8861 19.271 11.837 19.7745 11.7019 20.2657C11.6037 20.6218 11.4686 21.0517 11.1493 21.2727C10.9773 21.3955 10.7808 21.3955 10.5844 21.3587C10.3879 21.3096 10.1423 21.2482 9.97032 21.1376C9.79839 21.0271 9.74927 20.8183 9.71243 20.6341C9.67559 20.3885 9.65103 20.1306 9.62646 19.885C9.55278 19.2833 9.4791 18.6938 9.41769 18.092C9.39313 17.8464 9.02471 17.8464 9.04927 18.0797Z" fill="white"/>
<path d="M11.8265 18.8387C13.4353 19.2194 15.1423 19.1457 16.7143 18.6422C16.6406 18.5808 16.5546 18.5194 16.4809 18.4703C16.4809 19.0229 16.5055 19.5756 16.5669 20.1159C16.5914 20.337 16.6283 20.5703 16.7511 20.7668C16.8616 20.9387 17.0336 21.0615 17.23 21.1352C18.1143 21.4545 18.9248 20.644 19.1581 19.858C19.3178 19.3054 19.2932 18.7282 19.2564 18.1633C19.2441 17.9299 18.8757 17.9299 18.8879 18.1633C18.9125 18.7036 18.9493 19.2563 18.7897 19.7843C18.6546 20.2142 18.3476 20.6194 17.9178 20.7668C17.7213 20.8405 17.5002 20.8528 17.3037 20.7668C17.0581 20.6685 16.9844 20.4475 16.9476 20.2142C16.8616 19.637 16.8371 19.0475 16.8493 18.4703C16.8493 18.3598 16.7265 18.2615 16.616 18.2984C15.1055 18.7896 13.4721 18.8633 11.9248 18.4949C11.6914 18.4335 11.5932 18.7896 11.8265 18.8387Z" fill="white"/>
<path d="M19.3912 18.2366C19.7596 17.8559 20.0421 17.4138 20.214 16.9103C20.1526 16.9594 20.0912 16.9962 20.0421 17.0453C20.2263 17.0453 20.3737 17.1927 20.5456 17.2541C20.7175 17.3155 20.9017 17.291 21.0614 17.1927C21.3929 16.9839 21.5035 16.5418 21.5772 16.1857C21.6754 15.7068 21.7245 15.2032 21.6877 14.7243C21.6631 14.405 21.5649 14.012 21.2333 13.8892C21.0614 13.8278 20.8894 13.8646 20.7298 13.9383C20.6193 13.9875 20.4351 14.1594 20.3122 14.1225C20.1772 14.0857 20.0544 13.8032 19.993 13.6927C19.8947 13.5331 19.8087 13.3611 19.6982 13.2015C19.6 13.0418 19.4894 12.8945 19.3421 12.7717C19.2684 12.7103 19.1947 12.6489 19.121 12.5997C19.0473 12.5629 18.9491 12.5383 18.9245 12.4524C18.9 12.3541 18.9245 12.219 18.9368 12.1208C18.9368 11.9857 18.9491 11.8383 18.9491 11.7032C18.9491 11.519 18.9491 11.3225 18.9 11.1506C18.7526 10.7208 18.2982 10.5734 17.9298 10.8559C17.4877 11.1997 17.5859 11.7401 17.4263 12.2068C17.5122 12.1699 17.6105 12.1331 17.6965 12.0962C17.4631 11.9243 17.4386 11.5804 17.2912 11.3471C17.1193 11.1015 16.8368 10.905 16.5298 11.0278C16.2473 11.1383 16.1245 11.4822 16.0631 11.7646C15.9894 12.1085 16.014 12.4646 16.1245 12.7962C16.2105 12.7225 16.3087 12.6611 16.3947 12.5875C15.007 11.8015 13.3245 11.7032 11.814 12.1576C11.0526 12.391 10.3403 12.7471 9.71401 13.2383C9.09997 13.7296 8.67014 14.3804 8.49821 15.1418C8.314 15.9524 8.42453 16.8243 8.82979 17.5489C8.94032 17.7576 9.25962 17.5734 9.14909 17.3646C8.47365 16.1366 8.76839 14.5524 9.81225 13.6313C10.893 12.6734 12.428 12.1945 13.8649 12.2559C14.6877 12.2804 15.4859 12.5015 16.1982 12.9068C16.3333 12.9804 16.5175 12.8576 16.4684 12.698C16.3824 12.4401 16.3456 12.1822 16.3947 11.912C16.4193 11.7646 16.5052 11.3348 16.7386 11.3594C16.9596 11.3839 17.0579 11.7155 17.1315 11.8875C17.2175 12.0962 17.3158 12.2804 17.5123 12.4155C17.6105 12.4892 17.7456 12.4032 17.7824 12.305C17.9052 11.9489 17.8193 11.4576 18.1017 11.1875C18.1877 11.1015 18.3351 11.0155 18.4579 11.1138C18.5684 11.212 18.5807 11.3962 18.5807 11.519C18.5807 11.7032 18.5684 11.8997 18.5684 12.0839C18.5561 12.2682 18.5193 12.5138 18.6175 12.6857C18.7035 12.8208 18.8754 12.8576 18.9982 12.9559C19.1333 13.0541 19.2438 13.1892 19.3298 13.3243C19.514 13.5945 19.6491 13.8892 19.8333 14.1471C19.9315 14.2822 20.0298 14.4173 20.1894 14.4664C20.3491 14.5155 20.4965 14.4664 20.6438 14.3927C20.7544 14.3313 20.8772 14.2331 21.0123 14.2208C21.1351 14.2085 21.2087 14.319 21.2456 14.4296C21.307 14.5769 21.307 14.7243 21.3193 14.8839C21.3193 15.1173 21.3193 15.3506 21.2947 15.5717C21.2701 15.8296 21.221 16.0752 21.1596 16.3208C21.1228 16.4804 21.0737 16.6524 20.9631 16.7875C20.8526 16.9348 20.7298 16.9471 20.5579 16.8734C20.3859 16.7875 20.2386 16.6892 20.0298 16.6892C19.9438 16.6892 19.8824 16.7506 19.8579 16.8243C19.7105 17.2664 19.4526 17.6594 19.1333 17.9787C18.9737 18.1506 19.2315 18.4085 19.3912 18.2366Z" fill="white"/>
<path d="M8.75648 14.1233C8.52315 14.0987 8.27753 14.0127 8.06876 13.9145C7.87226 13.8285 7.67577 13.7057 7.51612 13.5583C7.38104 13.4232 7.25823 13.2513 7.20911 13.0548C7.15998 12.8952 7.13543 12.625 7.31964 12.539C7.50385 12.4531 7.56525 12.7233 7.58981 12.8583C7.61437 13.018 7.58981 13.2145 7.49156 13.3373C7.23367 13.6566 6.64419 13.4355 6.3863 13.2145C6.21437 13.0671 6.14069 12.8583 6.11613 12.6373C6.10385 12.539 6.09157 12.4285 6.09157 12.318C6.09157 12.2566 6.09157 12.2075 6.09157 12.1461C6.09157 12.1215 6.09157 12.1092 6.09157 12.0847C6.09157 12.0355 6.11613 12.011 6.067 12.0355C6.25121 11.9004 6.067 11.5811 5.88279 11.7162C5.7477 11.8145 5.72314 11.925 5.72314 12.0847C5.72314 12.2443 5.72314 12.404 5.73542 12.5636C5.75998 12.8461 5.83367 13.1285 6.0056 13.3496C6.36174 13.804 7.22139 14.0618 7.68806 13.6566C8.05648 13.325 8.09332 12.4654 7.60209 12.2075C7.31963 12.0601 7.00034 12.232 6.86525 12.4899C6.73016 12.7724 6.80384 13.104 6.92665 13.3741C7.07402 13.6811 7.33192 13.9268 7.62665 14.111C7.95823 14.3075 8.36349 14.4548 8.74419 14.4917C8.98981 14.5162 8.98981 14.1478 8.75648 14.1233Z" fill="white"/>
<path d="M12.6742 13.3836C12.6619 13.4327 12.6619 13.445 12.6742 13.4204C12.6864 13.4081 12.711 13.3958 12.7356 13.3836C12.7847 13.359 12.8215 13.3344 12.8707 13.3222C12.9566 13.2853 13.0426 13.2607 13.1285 13.2362C13.3128 13.1871 13.497 13.1625 13.6812 13.1502C14.0619 13.1379 14.4426 13.2239 14.7742 13.3958C14.9829 13.5064 15.1671 13.1871 14.9584 13.0765C14.504 12.8432 13.9882 12.7327 13.4847 12.7941C13.2391 12.8186 12.9935 12.88 12.7601 12.966C12.5391 13.052 12.2566 13.1871 12.3303 13.4818C12.3671 13.7151 12.7233 13.6169 12.6742 13.3836Z" fill="white"/>
<path d="M18.3223 14.0867C18.2978 14.185 18.2855 14.2832 18.2978 14.3937C18.2978 14.4551 18.3101 14.5043 18.3223 14.5657C18.3346 14.6271 18.3592 14.6762 18.3838 14.7253C18.396 14.7621 18.4574 14.799 18.4943 14.8113C18.5434 14.8236 18.5925 14.8236 18.6417 14.7867C18.6785 14.7621 18.7153 14.7253 18.7276 14.6762C18.7276 14.6639 18.7276 14.6393 18.7399 14.6271C18.7399 14.5902 18.7276 14.5657 18.7153 14.5288C18.7153 14.5288 18.7153 14.5288 18.7153 14.5165C18.7276 14.5288 18.7276 14.5411 18.7399 14.5657C18.7153 14.5043 18.7031 14.4429 18.6908 14.3692C18.6908 14.3814 18.6908 14.406 18.7031 14.4183C18.6908 14.3446 18.6908 14.2832 18.7031 14.2095C18.7031 14.2218 18.7031 14.2464 18.6908 14.2586C18.6908 14.2341 18.7031 14.1972 18.7031 14.1727C18.7153 14.1236 18.7153 14.0744 18.6785 14.0253C18.6539 13.9885 18.6171 13.9516 18.568 13.9393C18.4452 13.9271 18.3469 13.9762 18.3223 14.0867Z" fill="white"/>
<path d="M18.5559 16.2352C18.4454 16.5913 18.691 16.9597 19.0103 17.1071C19.3542 17.2668 19.7594 17.2422 20.0787 17.0457C20.1647 16.9966 20.2016 16.8861 20.1402 16.7878C20.091 16.7018 19.9682 16.665 19.8823 16.7264C19.8209 16.7632 19.7717 16.7878 19.7226 16.8001C19.6858 16.8124 19.6612 16.8246 19.6244 16.8246C19.6121 16.8246 19.5875 16.8369 19.5752 16.8369C19.5998 16.8369 19.5507 16.8369 19.5507 16.8369C19.5138 16.8369 19.4893 16.8369 19.4524 16.8369C19.4402 16.8369 19.4156 16.8369 19.4033 16.8369C19.391 16.8369 19.3542 16.8369 19.3788 16.8369C19.3174 16.8246 19.2314 16.8001 19.1945 16.7878C19.1823 16.7878 19.1454 16.7632 19.1209 16.751C19.1086 16.7387 19.0963 16.7387 19.084 16.7264C19.0349 16.7018 19.0963 16.7387 19.0717 16.7141C19.0472 16.6896 19.0226 16.665 18.998 16.6404C18.998 16.6404 18.9612 16.6036 18.9735 16.6159C18.9858 16.6282 18.9489 16.5913 18.9612 16.5913C18.9489 16.5668 18.9244 16.5422 18.9121 16.5176C18.9244 16.5422 18.9121 16.5053 18.9121 16.5053C18.9121 16.4931 18.8998 16.4808 18.8998 16.4685C18.8998 16.4685 18.8875 16.4071 18.8998 16.4439C18.8998 16.4317 18.8998 16.4194 18.8998 16.3948C18.8998 16.3825 18.8998 16.3457 18.8998 16.3825C18.8998 16.3703 18.9121 16.3457 18.9121 16.3334C18.9366 16.2352 18.8752 16.1369 18.7893 16.1124C18.691 16.0755 18.5928 16.1369 18.5559 16.2352Z" fill="white"/>
<path d="M13.7778 5.48817C12.9427 5.0829 11.9971 5.67238 11.5182 6.3601C11.0269 7.0601 10.9041 7.96887 11.248 8.75483C11.5673 9.50396 12.2673 10.0934 13.0778 10.204C13.8883 10.3145 14.748 10.0075 15.2515 9.35659C15.8287 8.60746 15.8655 7.48992 15.3252 6.71624C15.1901 6.51974 14.8708 6.70396 15.0059 6.90045C15.4111 7.47764 15.4603 8.2636 15.1164 8.88992C14.7848 9.49167 14.1217 9.84782 13.4462 9.8601C12.7462 9.87238 12.0953 9.49167 11.7269 8.9022C11.3585 8.31273 11.3094 7.57588 11.5918 6.93729C11.7515 6.58115 12.0094 6.24957 12.3287 6.02852C12.6725 5.7829 13.1638 5.61097 13.569 5.80746C13.8024 5.90571 13.9989 5.58641 13.7778 5.48817Z" fill="white"/>
<path d="M14.3437 6.23561C14.356 6.23561 14.3683 6.23561 14.3928 6.23561C14.4174 6.23561 14.442 6.23561 14.4665 6.22333C14.4911 6.21105 14.5034 6.19876 14.5279 6.18648C14.5402 6.1742 14.5525 6.14964 14.5648 6.12508C14.577 6.10052 14.577 6.07596 14.577 6.0514C14.577 6.03912 14.577 6.01455 14.5648 6.00227C14.5525 5.96543 14.5402 5.94087 14.5156 5.91631C14.5034 5.90403 14.4911 5.89175 14.4788 5.89175C14.4542 5.87947 14.4174 5.86719 14.3806 5.86719C14.3683 5.86719 14.356 5.86719 14.3314 5.86719C14.3069 5.86719 14.2823 5.86718 14.2577 5.87947C14.2332 5.89175 14.2209 5.90403 14.1963 5.91631C14.1841 5.92859 14.1718 5.95315 14.1595 5.97771C14.1472 6.00227 14.1472 6.02684 14.1472 6.0514C14.1472 6.06368 14.1472 6.08824 14.1595 6.10052C14.1718 6.13736 14.1841 6.16192 14.2086 6.18648C14.2209 6.19876 14.2332 6.21105 14.2455 6.21105C14.2823 6.23561 14.3069 6.23561 14.3437 6.23561Z" fill="white"/>
<path d="M13.0547 7.7127C13.3126 7.56534 13.5582 7.36884 13.7425 7.13551C13.6319 7.08639 13.5337 7.04954 13.4232 7.00042C13.3863 7.54077 13.3495 8.08112 13.3126 8.62147C13.4354 8.62147 13.5582 8.62147 13.6811 8.62147C13.6811 8.58463 13.6811 8.56007 13.6811 8.52323C13.6688 8.28989 13.3004 8.28989 13.3126 8.52323C13.3126 8.56007 13.3126 8.58463 13.3126 8.62147C13.3249 8.85481 13.6688 8.85481 13.6811 8.62147C13.7179 8.08112 13.7547 7.54077 13.7916 7.00042C13.8039 6.85305 13.5828 6.74253 13.4723 6.86533C13.3003 7.0741 13.0916 7.24604 12.8582 7.38112C12.6618 7.50393 12.8582 7.82323 13.0547 7.7127Z" fill="white"/>
<path d="M13.5461 8.63405C13.7794 8.63405 13.7794 8.26562 13.5461 8.26562C13.3128 8.26562 13.3128 8.63405 13.5461 8.63405Z" fill="white"/>
</g>
</svg>
