<svg width="28" height="28" viewBox="0 0 28 28" fill="none" xmlns="http://www.w3.org/2000/svg">
<mask id="mask0_270_29132" style="mask-type:alpha" maskUnits="userSpaceOnUse" x="0" y="0" width="28" height="28">
<path d="M14 28C21.732 28 28 21.732 28 14C28 6.26801 21.732 0 14 0C6.26801 0 0 6.26801 0 14C0 21.732 6.26801 28 14 28Z" fill="#204E91"/>
</mask>
<g mask="url(#mask0_270_29132)">
<path d="M14 28C21.732 28 28 21.732 28 14C28 6.26801 21.732 0 14 0C6.26801 0 0 6.26801 0 14C0 21.732 6.26801 28 14 28Z" fill="#004E96"/>
<path d="M0.57892 21.673C1.26664 20.7029 2.34735 20.1625 3.17015 19.3274C3.63682 18.8608 4.05436 18.345 4.42278 17.8169C4.57015 17.6081 4.6684 17.3748 4.88945 17.2397C5.13507 17.0801 5.41752 17.0187 5.69998 16.9573C6.28945 16.8222 6.86664 16.7116 7.35787 16.3432C7.81226 15.9994 8.15611 15.545 8.43857 15.066C8.74559 14.538 8.97892 13.9853 9.23682 13.4327C9.35962 13.1502 9.49471 12.8678 9.64208 12.5976C9.70348 12.4748 9.76489 12.3643 9.83857 12.2415C9.89998 12.1432 10.0105 11.8853 10.1579 11.9222C10.293 11.9713 10.3421 12.2169 10.3666 12.3274C10.4158 12.5239 10.4526 12.7327 10.4772 12.9415C10.514 13.3467 10.5017 13.752 10.4403 14.145C10.3052 14.9432 9.97366 15.7046 9.45787 16.3187C9.3719 16.4169 9.39647 16.6011 9.54383 16.6257C11.7421 17.0187 13.9772 16.9081 16.2 16.9081C16.6912 16.9081 17.1579 16.9204 17.6245 17.0801C17.7473 17.1292 17.8579 17.1783 17.8702 17.3257C17.8824 17.4731 17.8333 17.6204 17.7473 17.7309C17.5263 17.9888 17.1456 18.0871 16.8386 18.1362C16.3596 18.2222 15.8561 18.1976 15.3772 18.2222C14.0877 18.2836 12.7982 18.345 11.5087 18.4064C11.3491 18.4187 11.2754 18.6029 11.3737 18.7257C11.7421 19.1309 11.4596 19.7818 11.2509 20.1871C10.9316 20.838 10.5754 21.4766 10.2438 22.1152C10.207 22.1888 10.2193 22.2748 10.2684 22.3362C10.6 22.7292 10.293 23.3309 9.93682 23.6011C9.37191 24.0187 8.56138 23.8713 7.9105 23.8099C7.30875 23.7485 6.65787 23.7239 6.10524 24.0064C5.47892 24.3134 5.20874 24.9888 4.8526 25.5415C4.63155 25.873 4.38594 26.2046 4.12805 26.5116C4.00524 26.659 3.87015 26.8187 3.73506 26.9537C3.66138 27.0274 3.5877 27.1134 3.51401 27.1871C3.48945 27.2116 3.46488 27.2362 3.44032 27.2608C3.41576 27.2853 3.3912 27.2976 3.36664 27.3099C3.50173 27.4695 3.45261 27.5064 3.23156 27.4204C3.35436 27.6292 3.67366 27.445 3.55085 27.2362C3.35436 26.9046 2.89998 27.3344 3.14559 27.5923C3.45261 27.9239 3.89471 27.3344 4.07892 27.138C4.68068 26.4871 5.15963 25.7625 5.62629 25.0134C5.84735 24.6573 6.10524 24.3871 6.5105 24.2643C6.86664 24.1537 7.25963 24.1537 7.62805 24.1783C8.42629 24.2274 9.38419 24.4485 10.0965 23.9695C10.6859 23.5766 11.0421 22.7046 10.5386 22.1029C10.5509 22.1766 10.5631 22.2502 10.5631 22.3239C10.7596 21.9555 10.9561 21.5871 11.1403 21.2064C11.3123 20.8748 11.5087 20.5309 11.6684 20.1871C11.914 19.6467 12.0737 18.9713 11.6316 18.4801C11.5824 18.5906 11.5456 18.6888 11.4965 18.7994C12.7245 18.738 13.9526 18.6888 15.1807 18.6274C15.721 18.6029 16.2859 18.6029 16.8263 18.5292C17.207 18.4801 17.5877 18.3695 17.8947 18.1239C18.1649 17.8906 18.3245 17.4853 18.1895 17.1415C18.0421 16.7608 17.5386 16.6748 17.1824 16.6134C16.6175 16.5274 16.0403 16.5643 15.4754 16.5643C14.8737 16.5643 14.2596 16.5766 13.6579 16.5766C12.307 16.5766 10.9561 16.5397 9.6298 16.2941C9.65436 16.3924 9.67893 16.5029 9.71577 16.6011C10.6982 15.4345 11.0912 13.8257 10.7473 12.3397C10.6737 12.0327 10.5386 11.6029 10.1702 11.566C9.80173 11.5292 9.61752 11.8976 9.45787 12.1678C9.13857 12.7327 8.89296 13.3222 8.62278 13.9117C8.36489 14.4643 8.09471 15.0415 7.70173 15.5204C7.32103 15.9871 6.84208 16.3187 6.26488 16.4783C5.67541 16.638 4.97541 16.6625 4.50875 17.1046C4.29997 17.3011 4.17717 17.5836 4.00524 17.8169C3.83331 18.0502 3.6491 18.2836 3.46489 18.5046C2.9491 19.1187 2.35962 19.6345 1.72102 20.1134C1.16839 20.5187 0.677165 20.9608 0.271902 21.5134C0.124534 21.6853 0.443832 21.8695 0.57892 21.673Z" fill="white"/>
<path d="M19.3739 10.9923C18.9809 12.2695 18.723 13.5958 18.6002 14.9221C18.5756 15.1923 18.5142 15.5239 18.6616 15.7818C18.7844 16.0028 19.03 16.0888 19.2756 16.052C19.8037 15.9537 20.1721 15.3888 20.4668 14.9958C20.823 14.5169 21.1177 14.0134 21.3633 13.473C21.4861 13.2028 21.5967 12.9204 21.6949 12.6257C21.7809 12.38 21.8177 12.0976 21.9528 11.8642C22.1002 11.6064 22.4195 11.5941 22.6897 11.5572C23.0458 11.5081 23.4019 11.459 23.7581 11.4099C24.4458 11.3116 25.1335 11.2134 25.8212 11.1151C27.3809 10.8941 28.9405 10.673 30.5002 10.452C30.4633 10.3292 30.4388 10.2186 30.4019 10.0958C30.2791 10.1449 30.144 10.1941 30.0212 10.2309C29.8002 10.3169 29.8984 10.673 30.1195 10.5871C30.2423 10.5379 30.3774 10.4888 30.5002 10.452C30.7212 10.366 30.6353 10.059 30.4019 10.0958C27.7493 10.4765 25.0967 10.8449 22.444 11.2256C22.1861 11.2625 21.9405 11.3239 21.7563 11.5204C21.5844 11.7046 21.523 11.9502 21.4493 12.1835C21.2897 12.7239 21.0809 13.252 20.823 13.7555C20.5528 14.259 20.2335 14.7502 19.8651 15.1923C19.7054 15.3765 19.5335 15.5853 19.3002 15.6835C19.2142 15.7204 19.116 15.7449 19.0423 15.6835C18.944 15.6099 18.9563 15.4502 18.9563 15.3397C19.0177 13.9151 19.3247 12.4783 19.7423 11.1151C19.8037 10.8572 19.4475 10.759 19.3739 10.9923Z" fill="white"/>
<path d="M19.5722 10.5841C17.1775 10.0683 14.6968 9.93321 12.2529 10.2034C12.081 10.2279 11.8599 10.2894 11.7126 10.1665C11.6143 10.0929 11.5775 9.95777 11.5898 9.84725C11.6143 9.65076 11.8108 9.58935 11.9705 9.52795C12.2529 9.41742 12.5354 9.33146 12.8178 9.25777C13.4073 9.09812 14.0091 8.97532 14.6108 8.91391C14.8933 8.87707 15.188 8.86479 15.4705 8.85251C15.7652 8.84023 16.0599 8.86479 16.3424 8.84023C16.6003 8.81567 16.7845 8.65602 16.8459 8.39812C16.895 8.16479 16.8336 7.91918 16.9073 7.69812C17.0547 7.28058 17.5582 7.04725 17.9757 7.2069C18.1599 7.28058 18.2705 7.02269 18.1599 6.89988C17.8038 6.49461 18.2827 5.69637 18.8108 5.8069C18.9213 5.83146 19.0564 5.75777 19.0442 5.63496C19.0196 5.14374 19.3512 4.79988 19.7687 4.5911C20.2599 4.34549 20.8126 4.34549 21.3284 4.4683C22.0038 4.62795 22.6301 4.92268 23.3178 5.04549C24.067 5.18058 24.767 5.02093 25.4792 4.82444C26.3389 4.59111 27.2108 4.34549 28.0705 4.11216C28.0091 4.01391 27.9477 3.90338 27.8863 3.80514C27.7389 3.97707 27.5915 4.149 27.4442 4.32093C27.2845 4.50514 27.5547 4.76304 27.702 4.57883C27.8494 4.4069 27.9968 4.23496 28.1441 4.06303C28.2547 3.92795 28.1564 3.70689 27.9599 3.75602C27.1494 3.97707 26.3512 4.19812 25.5406 4.41917C25.1599 4.5297 24.7792 4.64023 24.3863 4.70163C24.0056 4.76304 23.6126 4.75075 23.2442 4.66479C22.5319 4.50514 21.8687 4.18584 21.1564 4.06303C20.6161 3.96479 20.0512 4.03847 19.5477 4.28409C19.0319 4.54198 18.6143 5.03321 18.6512 5.63496C18.7249 5.57356 18.8108 5.51216 18.8845 5.46303C17.988 5.26654 17.2757 6.48233 17.8775 7.17005C17.9389 7.07181 18.0003 6.96128 18.0617 6.86303C17.6442 6.70338 17.1529 6.83847 16.8336 7.14549C16.674 7.29286 16.5635 7.48935 16.5143 7.69812C16.4898 7.80865 16.4898 7.93146 16.4898 8.04198C16.4898 8.14023 16.502 8.27532 16.4529 8.37356C16.4038 8.47181 16.2933 8.47181 16.195 8.47181C16.0231 8.47181 15.8512 8.47181 15.6915 8.47181C15.3722 8.48409 15.0529 8.49637 14.7336 8.53321C14.095 8.59461 13.4564 8.70514 12.8301 8.86479C12.5231 8.93847 12.2161 9.03672 11.9213 9.14725C11.7003 9.23321 11.4547 9.31918 11.3073 9.51567C11.0863 9.82268 11.1722 10.2648 11.4792 10.4858C11.6512 10.6086 11.8477 10.6209 12.0442 10.5964C12.3635 10.5595 12.695 10.5227 13.0143 10.4981C13.6775 10.449 14.3406 10.4244 14.9915 10.4367C16.4898 10.449 17.9757 10.6209 19.4371 10.9402C19.695 10.9894 19.7933 10.6332 19.5722 10.5841Z" fill="white"/>
<path d="M9.02253 22.6793C9.39095 22.5565 9.68568 22.2495 9.77165 21.8688C9.79621 21.7828 9.79621 21.6969 9.79621 21.5986C9.79621 21.4635 9.84534 21.4635 9.9313 21.3776C10.0664 21.2548 10.1524 21.0828 10.1892 20.8986C10.2015 20.8004 10.2138 20.7021 10.1892 20.6039C10.1769 20.5671 10.1769 20.5179 10.1646 20.4811C10.1646 20.432 10.1524 20.4197 10.1401 20.4565C10.1278 20.4811 10.1278 20.4811 10.1646 20.4565C10.312 20.4074 10.4471 20.2478 10.5085 20.1127C10.6681 19.8056 10.619 19.4249 10.3857 19.1671C10.226 18.9951 9.96814 19.253 10.1278 19.4249C10.2874 19.5969 10.2629 19.9162 10.0787 20.0635C9.96814 20.1618 9.82077 20.1864 9.77165 20.346C9.73481 20.5056 9.83306 20.653 9.8085 20.8127C9.78394 20.9723 9.68569 21.0706 9.57516 21.1811C9.44007 21.2916 9.41551 21.4267 9.41551 21.5864C9.41551 21.9056 9.21902 22.2004 8.89972 22.3109C8.70323 22.3969 8.80148 22.753 9.02253 22.6793Z" fill="white"/>
<path d="M16.1701 17.3638C16.1701 17.3638 16.1578 17.3515 16.1455 17.3392C16.1701 17.3761 16.1946 17.4129 16.2069 17.4498C16.1946 17.4375 16.1946 17.4252 16.1824 17.4006C16.1946 17.4498 16.2069 17.4866 16.2192 17.5357C16.2192 17.5235 16.2192 17.4989 16.2069 17.4866C16.2069 17.5357 16.2192 17.5849 16.2069 17.6217C16.2069 17.6094 16.2069 17.5849 16.2192 17.5726C16.2192 17.5849 16.2192 17.5971 16.2069 17.6094C16.1946 17.6585 16.1946 17.7077 16.2315 17.7568C16.256 17.7936 16.2929 17.8305 16.342 17.8427C16.3911 17.855 16.4402 17.855 16.4894 17.8182C16.5262 17.7936 16.5631 17.7568 16.5753 17.7077C16.5999 17.5971 16.5999 17.4866 16.5753 17.3761C16.5508 17.2656 16.4894 17.1673 16.428 17.0813C16.4034 17.0445 16.342 17.0322 16.2929 17.0322C16.2438 17.0322 16.1946 17.0568 16.1578 17.0813C16.1209 17.1182 16.0964 17.1673 16.1087 17.2164C16.1087 17.2287 16.1087 17.2533 16.1209 17.2656C16.1332 17.3147 16.1455 17.3392 16.1701 17.3638Z" fill="white"/>
<path d="M13.3167 9.48186C13.2799 9.64151 13.3045 9.81344 13.3781 9.96081C13.4027 9.99765 13.4395 10.0345 13.4887 10.0468C13.5378 10.0591 13.5869 10.0591 13.636 10.0222C13.6729 9.99765 13.7097 9.96081 13.722 9.91168C13.7343 9.86256 13.7343 9.81344 13.6974 9.76432C13.6851 9.75204 13.6851 9.73976 13.6729 9.7152C13.6851 9.72748 13.6851 9.73976 13.6974 9.76432C13.6851 9.72748 13.6729 9.69063 13.6606 9.64151C13.6606 9.65379 13.6606 9.67835 13.6729 9.69063C13.6729 9.65379 13.6729 9.60467 13.6729 9.56783C13.6729 9.58011 13.6729 9.60467 13.6606 9.61695C13.6606 9.60467 13.6606 9.59239 13.6729 9.56783C13.6851 9.5187 13.6851 9.46958 13.6483 9.42046C13.6237 9.38361 13.5869 9.34677 13.5378 9.33449C13.4887 9.32221 13.4395 9.32221 13.3904 9.35905C13.3659 9.3959 13.329 9.43274 13.3167 9.48186Z" fill="white"/>
<path d="M18.6313 8.37501C18.5085 7.9329 18.8524 7.41711 19.3191 7.38027C19.4787 7.36799 19.5524 7.18378 19.4541 7.06098C19.2208 6.7908 19.4419 6.42238 19.7735 6.43466C19.9331 6.44694 19.9822 6.27501 19.9331 6.1522C19.8103 5.88203 19.9945 5.52589 20.2647 5.42764C20.4857 5.35396 20.3875 4.99782 20.1664 5.0715C19.6506 5.24343 19.3927 5.8329 19.6138 6.33641C19.6629 6.23817 19.7243 6.1522 19.7735 6.05396C19.4787 6.04168 19.184 6.20133 19.0612 6.48378C18.9261 6.76624 18.9998 7.08554 19.1963 7.30659C19.2454 7.19606 19.2822 7.09782 19.3313 6.98729C18.6313 7.03641 18.1033 7.76098 18.2875 8.44869C18.3489 8.70659 18.705 8.60834 18.6313 8.37501Z" fill="white"/>
</g>
</svg>
