<svg width="20" height="13" viewBox="0 0 20 13" fill="none" xmlns="http://www.w3.org/2000/svg">
<path d="M13.646 9.30078H8.11328" stroke="#63A8E8" stroke-miterlimit="10" stroke-linecap="round" stroke-linejoin="round"/>
<path d="M2.58079 9.29847H2.18559C1.86943 9.29847 1.55328 9.14041 1.47424 8.82425L1 7.71768L1.31615 4.71424L3.13407 1.78973C3.29215 1.55261 3.52926 1.39453 3.76638 1.39453H11.7494C11.9865 1.39453 12.1445 1.47361 12.3026 1.63169L15.148 4.55611L17.6773 4.9513C18.4677 5.03034 19.1 5.7417 19.1 6.53209V8.50807C19.1 8.90327 18.7048 9.29847 18.3096 9.29847" stroke="#63A8E8" stroke-miterlimit="10" stroke-linecap="round" stroke-linejoin="round"/>
<path d="M5.34708 11.6707C6.43838 11.6707 7.32306 10.786 7.32306 9.69473C7.32306 8.60343 6.43838 7.71875 5.34708 7.71875C4.25577 7.71875 3.37109 8.60343 3.37109 9.69473C3.37109 10.786 4.25577 11.6707 5.34708 11.6707Z" stroke="#63A8E8" stroke-miterlimit="10" stroke-linecap="round" stroke-linejoin="round"/>
<path d="M15.6225 11.6707C16.7138 11.6707 17.5985 10.786 17.5985 9.69473C17.5985 8.60343 16.7138 7.71875 15.6225 7.71875C14.5312 7.71875 13.6465 8.60343 13.6465 9.69473C13.6465 10.786 14.5312 11.6707 15.6225 11.6707Z" stroke="#63A8E8" stroke-miterlimit="10" stroke-linecap="round" stroke-linejoin="round"/>
<path d="M1.79102 4.55859H15.2277" stroke="#63A8E8" stroke-miterlimit="10" stroke-linecap="round" stroke-linejoin="round"/>
<path d="M8.11377 1V4.16157" stroke="#63A8E8" stroke-miterlimit="10" stroke-linejoin="round"/>
</svg>
