<svg width="18" height="18" viewBox="0 0 18 18" fill="none" xmlns="http://www.w3.org/2000/svg">
<path d="M3.78261 12.8269H4.47826V7.26172H3.78261C2.25217 7.26172 1 8.51389 1 10.0443C1 11.6443 2.25217 12.8269 3.78261 12.8269Z" stroke="#63A8E8" stroke-miterlimit="10" stroke-linecap="round" stroke-linejoin="round"/>
<path d="M14.2176 12.8269H13.522V7.26172H14.2176C15.7481 7.26172 17.0002 8.51389 17.0002 10.0443C17.0002 11.6443 15.7481 12.8269 14.2176 12.8269Z" stroke="#63A8E8" stroke-miterlimit="10" stroke-linecap="round" stroke-linejoin="round"/>
<path d="M3.78271 7.26087V6.21739C3.78271 3.36522 6.14793 1 9.00011 1C11.8523 1 14.2175 3.36522 14.2175 6.21739V7.26087" stroke="#63A8E8" stroke-miterlimit="10" stroke-linecap="round" stroke-linejoin="round"/>
<path d="M14.2182 12.8242C14.2182 14.2155 13.5225 15.6068 11.4355 15.6068" stroke="#63A8E8" stroke-miterlimit="10" stroke-linecap="round" stroke-linejoin="round"/>
<path d="M10.3918 17.001H9.00051C8.44399 17.001 7.95703 16.5141 7.95703 15.9575C7.95703 15.401 8.44399 14.9141 9.00051 14.9141H10.3918C10.9483 14.9141 11.4353 15.401 11.4353 15.9575C11.4353 16.5836 10.9483 17.001 10.3918 17.001Z" stroke="#63A8E8" stroke-miterlimit="10" stroke-linecap="round" stroke-linejoin="round"/>
</svg>
