<svg width="16" height="17" viewBox="0 0 16 17" fill="none" xmlns="http://www.w3.org/2000/svg">
<path d="M11.3333 15.5H4.66667C4.31304 15.5 3.97391 15.363 3.72386 15.1192C3.47381 14.8754 3.33333 14.5448 3.33333 14.2V5.75H2.65C2.29102 5.75 2 5.45898 2 5.1C2 4.74101 2.29101 4.45 2.65 4.45H4.66667V3.8C4.66667 3.45522 4.80714 3.12456 5.05719 2.88076C5.30724 2.63696 5.64638 2.5 6 2.5H10C10.3536 2.5 10.6928 2.63696 10.9428 2.88076C11.1929 3.12456 11.3333 3.45522 11.3333 3.8V4.45H13.35C13.709 4.45 14 4.74101 14 5.1C14 5.45898 13.709 5.75 13.35 5.75H12.6667V14.2C12.6667 14.5448 12.5262 14.8754 12.2761 15.1192C12.0261 15.363 11.687 15.5 11.3333 15.5ZM4.66667 5.75V14.2H11.3333V5.75H4.66667ZM6 3.8V4.45H10V3.8H6ZM10 12.2333C10 12.6015 9.70152 12.9 9.33333 12.9C8.96514 12.9 8.66667 12.6015 8.66667 12.2333V7.71667C8.66667 7.34848 8.96514 7.05 9.33333 7.05C9.70152 7.05 10 7.34848 10 7.71667V12.2333ZM7.33333 12.2333C7.33333 12.6015 7.03486 12.9 6.66667 12.9C6.29848 12.9 6 12.6015 6 12.2333V7.71667C6 7.34848 6.29848 7.05 6.66667 7.05C7.03486 7.05 7.33333 7.34848 7.33333 7.71667V12.2333Z" fill="#E9561A"/>
</svg>
