<svg width="20" height="16" viewBox="0 0 20 16" fill="none" xmlns="http://www.w3.org/2000/svg">
<path d="M6.89286 13H12V1.8C12 1.4 11.6071 1 11.2143 1H1.78571C1.39286 1 1 1.4 1 1.8V13H2.96429" stroke="#63A8E8" stroke-miterlimit="10" stroke-linecap="round" stroke-linejoin="round"/>
<path d="M17.8462 13H19V10.4223C19 10.1556 18.9231 9.88893 18.6923 9.71115L16.6923 8.55556L16.3077 5.80002C16.3077 5.35558 15.9231 5 15.5385 5H12V13H13.9231" stroke="#63A8E8" stroke-miterlimit="10" stroke-linecap="round" stroke-linejoin="round"/>
<path d="M15.9176 14.5041C17.0017 14.5041 17.8805 13.6252 17.8805 12.5411C17.8805 11.457 17.0017 10.5781 15.9176 10.5781C14.8334 10.5781 13.9546 11.457 13.9546 12.5411C13.9546 13.6252 14.8334 14.5041 15.9176 14.5041Z" stroke="#63A8E8" stroke-miterlimit="10" stroke-linecap="round"/>
<path d="M4.92635 14.5041C6.01048 14.5041 6.88933 13.6252 6.88933 12.5411C6.88933 11.457 6.01048 10.5781 4.92635 10.5781C3.84223 10.5781 2.96338 11.457 2.96338 12.5411C2.96338 13.6252 3.84223 14.5041 4.92635 14.5041Z" stroke="#63A8E8" stroke-miterlimit="10" stroke-linecap="round"/>
</svg>
