<svg width="1060" height="340" viewBox="0 0 1060 340" fill="none" xmlns="http://www.w3.org/2000/svg">
<g opacity="0.1">
<path d="M1060 221.962L1059.92 221.881L1059.92 224.813L1060 224.896L1060 221.962Z" fill="#585892"/>
<path d="M1060 63.2575L1054.87 57.8174L1052.11 57.8174L1060 66.1912L1060 63.2575Z" fill="#585892"/>
<path d="M1060 89.7031L1029.96 57.8184L1027.19 57.8184L1060 92.6368L1060 89.7031Z" fill="#585892"/>
<path d="M1060 116.148L1005.04 57.8184L1002.27 57.8184L1060 119.083L1060 116.148Z" fill="#585892"/>
<path d="M978.742 57.8174L978.742 60.7511L1057.15 143.973L1059.92 143.973L978.742 57.8174Z" fill="#585892"/>
<path d="M1059.92 247.839L978.752 161.686L978.752 164.621L1059.92 250.775L1059.92 247.839Z" fill="#585892"/>
<path d="M1059.93 273.8L978.754 187.646L978.754 190.582L1059.93 276.736L1059.93 273.8Z" fill="#585892"/>
<path d="M1059.92 299.758L978.752 213.606L978.752 216.542L1059.92 302.692L1059.92 299.758Z" fill="#585892"/>
<path d="M1040.05 308.034L1042.81 308.034L961.637 221.88L958.873 221.88L1040.05 308.034Z" fill="#585892"/>
<path d="M1015.13 308.034L1017.9 308.034L936.722 221.88L933.956 221.88L1015.13 308.034Z" fill="#585892"/>
<path d="M990.214 308.034L992.979 308.034L911.806 221.88L909.04 221.88L990.214 308.034Z" fill="#585892"/>
<path d="M965.299 308.034L968.064 308.034L886.889 221.88L884.125 221.88L965.299 308.034Z" fill="#585892"/>
<path d="M940.385 308.035L943.15 308.035L861.977 221.881L859.211 221.881L940.385 308.035Z" fill="#585892"/>
<path d="M1059.92 221.878L978.752 135.726L978.752 138.661L1059.92 224.813L1059.92 221.878Z" fill="#585892"/>
<path d="M916.85 308.035L835.677 221.881L835.677 224.815L914.087 308.035L916.85 308.035Z" fill="#585892"/>
<path d="M978.747 423.081L978.747 420.145L897.575 333.993L897.575 336.929L978.747 423.081Z" fill="#585892"/>
<path d="M978.747 397.121L978.747 394.187L897.575 308.033L897.575 310.969L978.747 397.121Z" fill="#585892"/>
<path d="M978.747 86.7116L978.747 83.7779L897.575 -2.37598L897.575 0.559586L978.747 86.7116Z" fill="#585892"/>
<path d="M978.747 112.672L978.747 109.737L897.575 23.585L897.575 26.5205L978.747 112.672Z" fill="#585892"/>
<path d="M978.747 138.631L978.747 135.698L897.575 49.5439L897.575 52.4795L978.747 138.631Z" fill="#585892"/>
<path d="M958.868 143.972L961.634 143.972L880.458 57.8184L877.694 57.8184L958.868 143.972Z" fill="#585892"/>
<path d="M933.952 143.972L936.718 143.972L855.544 57.8184L852.778 57.8184L933.952 143.972Z" fill="#585892"/>
<path d="M909.033 143.972L911.799 143.972L830.625 57.8184L827.859 57.8184L909.033 143.972Z" fill="#585892"/>
<path d="M884.121 143.972L886.887 143.972L805.711 57.8184L802.947 57.8184L884.121 143.972Z" fill="#585892"/>
<path d="M859.202 143.972L861.968 143.972L780.794 57.8184L778.028 57.8184L859.202 143.972Z" fill="#585892"/>
<path d="M978.747 60.7516L978.747 57.8179L897.575 -28.3359L897.575 -25.4004L978.747 60.7516Z" fill="#585892"/>
<path d="M835.67 143.972L754.496 57.8184L754.496 60.752L832.904 143.972L835.67 143.972Z" fill="#585892"/>
<path d="M835.678 250.773L835.678 247.838L754.506 161.686L754.506 164.621L835.678 250.773Z" fill="#585892"/>
<path d="M835.678 276.734L835.678 273.8L754.506 187.646L754.506 190.582L835.678 276.734Z" fill="#585892"/>
<path d="M835.678 302.695L835.678 299.761L754.506 213.607L754.506 216.543L835.678 302.695Z" fill="#585892"/>
<path d="M815.801 308.035L818.566 308.035L737.391 221.881L734.627 221.881L815.801 308.035Z" fill="#585892"/>
<path d="M790.885 308.035L793.65 308.035L712.477 221.881L709.711 221.881L790.885 308.035Z" fill="#585892"/>
<path d="M765.968 308.035L768.733 308.035L687.56 221.881L684.794 221.881L765.968 308.035Z" fill="#585892"/>
<path d="M741.053 308.035L743.818 308.035L662.643 221.881L659.879 221.881L741.053 308.035Z" fill="#585892"/>
<path d="M716.137 308.035L718.902 308.035L637.729 221.879L634.963 221.881L716.137 308.035Z" fill="#585892"/>
<path d="M835.678 224.813L835.678 221.879L754.506 135.726L754.506 138.661L835.678 224.813Z" fill="#585892"/>
<path d="M692.602 308.035L611.429 221.881L611.429 224.815L689.837 308.035L692.602 308.035Z" fill="#585892"/>
<path d="M754.499 423.083L754.499 420.147L673.327 333.995L673.327 336.931L754.499 423.083Z" fill="#585892"/>
<path d="M754.499 397.121L754.499 394.187L673.327 308.033L673.327 310.969L754.499 397.121Z" fill="#585892"/>
<path d="M754.499 86.7116L754.499 83.7779L673.327 -2.37598L673.327 0.559586L754.499 86.7116Z" fill="#585892"/>
<path d="M754.499 112.672L754.499 109.737L673.327 23.585L673.327 26.5205L754.499 112.672Z" fill="#585892"/>
<path d="M754.499 138.631L754.499 135.698L673.327 49.5439L673.327 52.4795L754.499 138.631Z" fill="#585892"/>
<path d="M734.621 143.972L737.387 143.972L656.211 57.8184L653.447 57.8184L734.621 143.972Z" fill="#585892"/>
<path d="M709.704 143.972L712.47 143.972L631.296 57.8184L628.53 57.8184L709.704 143.972Z" fill="#585892"/>
<path d="M684.789 143.972L687.555 143.972L606.381 57.8184L603.615 57.8184L684.789 143.972Z" fill="#585892"/>
<path d="M659.873 143.972L662.639 143.972L581.463 57.8184L578.699 57.8184L659.873 143.972Z" fill="#585892"/>
<path d="M634.958 143.972L637.724 143.972L556.55 57.8184L553.784 57.8184L634.958 143.972Z" fill="#585892"/>
<path d="M754.499 60.7516L754.499 57.8179L673.327 -28.3359L673.327 -25.4004L754.499 60.7516Z" fill="#585892"/>
<path d="M611.424 143.972L530.25 57.8184L530.25 60.752L608.66 143.972L611.424 143.972Z" fill="#585892"/>
<path d="M611.432 250.773L611.432 247.838L530.26 161.686L530.26 164.621L611.432 250.773Z" fill="#585892"/>
<path d="M611.432 276.734L611.432 273.8L530.26 187.646L530.26 190.582L611.432 276.734Z" fill="#585892"/>
<path d="M611.432 302.695L611.432 299.761L530.26 213.607L530.26 216.543L611.432 302.695Z" fill="#585892"/>
<path d="M591.553 308.035L594.318 308.035L513.143 221.881L510.379 221.881L591.553 308.035Z" fill="#585892"/>
<path d="M566.638 308.035L569.403 308.035L488.229 221.881L485.464 221.881L566.638 308.035Z" fill="#585892"/>
<path d="M541.722 308.035L544.487 308.035L463.313 221.881L460.548 221.881L541.722 308.035Z" fill="#585892"/>
<path d="M516.806 308.035L519.571 308.035L438.396 221.881L435.632 221.881L516.806 308.035Z" fill="#585892"/>
<path d="M491.889 308.035L494.654 308.035L413.48 221.879L410.715 221.879L491.889 308.035Z" fill="#585892"/>
<path d="M611.432 224.813L611.432 221.879L530.26 135.726L530.26 138.661L611.432 224.813Z" fill="#585892"/>
<path d="M468.356 308.035L387.183 221.879L387.183 224.814L465.593 308.035L468.356 308.035Z" fill="#585892"/>
<path d="M530.252 423.083L530.252 420.147L449.08 333.995L449.08 336.931L530.252 423.083Z" fill="#585892"/>
<path d="M530.252 397.121L530.252 394.187L449.08 308.033L449.08 310.969L530.252 397.121Z" fill="#585892"/>
<path d="M530.252 86.7125L530.252 83.7789L449.08 -2.375L449.08 0.560563L530.252 86.7125Z" fill="#585892"/>
<path d="M530.252 112.672L530.252 109.739L449.08 23.585L449.08 26.5205L530.252 112.672Z" fill="#585892"/>
<path d="M530.252 138.631L530.252 135.698L449.08 49.5439L449.08 52.4795L530.252 138.631Z" fill="#585892"/>
<path d="M510.375 143.972L513.141 143.972L431.965 57.8184L429.201 57.8184L510.375 143.972Z" fill="#585892"/>
<path d="M485.456 143.972L488.222 143.972L407.048 57.8184L404.282 57.8184L485.456 143.972Z" fill="#585892"/>
<path d="M460.543 143.972L463.308 143.972L382.135 57.8184L379.369 57.8184L460.543 143.972Z" fill="#585892"/>
<path d="M435.625 143.972L438.391 143.972L357.215 57.8184L354.451 57.8184L435.625 143.972Z" fill="#585892"/>
<path d="M410.71 143.972L413.475 143.972L332.302 57.8184L329.536 57.8184L410.71 143.972Z" fill="#585892"/>
<path d="M530.252 60.7516L530.252 57.8179L449.08 -28.3359L449.08 -25.4004L530.252 60.7516Z" fill="#585892"/>
<path d="M387.176 143.972L306.002 57.8184L306.002 60.752L384.412 143.972L387.176 143.972Z" fill="#585892"/>
<path d="M387.186 250.773L387.186 247.838L306.014 161.686L306.014 164.621L387.186 250.773Z" fill="#585892"/>
<path d="M387.186 276.734L387.186 273.798L306.014 187.646L306.014 190.582L387.186 276.734Z" fill="#585892"/>
<path d="M387.187 302.695L387.187 299.759L306.015 213.607L306.015 216.543L387.187 302.695Z" fill="#585892"/>
<path d="M367.308 308.035L370.073 308.035L288.898 221.879L286.134 221.879L367.308 308.035Z" fill="#585892"/>
<path d="M342.391 308.035L345.156 308.035L263.982 221.879L261.217 221.879L342.391 308.035Z" fill="#585892"/>
<path d="M317.475 308.035L320.241 308.035L239.067 221.879L236.302 221.879L317.475 308.035Z" fill="#585892"/>
<path d="M292.559 308.035L295.325 308.035L214.15 221.879L211.386 221.879L292.559 308.035Z" fill="#585892"/>
<path d="M267.643 308.035L270.409 308.035L189.235 221.879L186.47 221.879L267.643 308.035Z" fill="#585892"/>
<path d="M387.186 224.813L387.186 221.879L306.014 135.726L306.014 138.661L387.186 224.813Z" fill="#585892"/>
<path d="M244.11 308.035L162.937 221.881L162.937 224.815L241.345 308.035L244.11 308.035Z" fill="#585892"/>
<path d="M306.006 423.083L306.006 420.147L224.834 333.995L224.834 336.931L306.006 423.083Z" fill="#585892"/>
<path d="M306.006 397.122L306.006 394.188L224.834 308.034L224.834 310.97L306.006 397.122Z" fill="#585892"/>
<path d="M306.006 86.7125L306.006 83.7789L224.834 -2.375L224.834 0.560563L306.006 86.7125Z" fill="#585892"/>
<path d="M306.006 112.672L306.006 109.737L224.834 23.585L224.834 26.5205L306.006 112.672Z" fill="#585892"/>
<path d="M306.008 138.631L306.008 135.698L224.836 49.5439L224.836 52.4795L306.008 138.631Z" fill="#585892"/>
<path d="M286.129 143.972L288.894 143.972L207.719 57.8184L204.955 57.8184L286.129 143.972Z" fill="#585892"/>
<path d="M261.212 143.972L263.977 143.972L182.804 57.8184L180.038 57.8184L261.212 143.972Z" fill="#585892"/>
<path d="M236.296 143.972L239.061 143.972L157.888 57.8184L155.122 57.8184L236.296 143.972Z" fill="#585892"/>
<path d="M211.38 143.972L214.145 143.972L132.97 57.8184L130.206 57.8184L211.38 143.972Z" fill="#585892"/>
<path d="M186.463 143.972L189.228 143.972L108.055 57.8184L105.289 57.8184L186.463 143.972Z" fill="#585892"/>
<path d="M306.006 60.7516L306.006 57.8179L224.834 -28.3359L224.834 -25.4004L306.006 60.7516Z" fill="#585892"/>
<path d="M162.93 143.972L81.7559 57.8184L81.7559 60.752L160.164 143.972L162.93 143.972Z" fill="#585892"/>
<path d="M162.938 250.773L162.938 247.838L81.7656 161.686L81.7656 164.621L162.938 250.773Z" fill="#585892"/>
<path d="M162.939 276.735L162.939 273.799L81.7666 187.647L81.7666 190.583L162.939 276.735Z" fill="#585892"/>
<path d="M162.938 302.694L162.938 299.76L81.7656 213.606L81.7656 216.542L162.938 302.694Z" fill="#585892"/>
<path d="M143.061 308.035L145.827 308.035L64.6515 221.881L61.8877 221.881L143.061 308.035Z" fill="#585892"/>
<path d="M118.144 308.035L120.91 308.035L39.7363 221.881L36.9707 221.881L118.144 308.035Z" fill="#585892"/>
<path d="M93.2284 308.035L95.994 308.035L14.8203 221.881L12.0547 221.881L93.2284 308.035Z" fill="#585892"/>
<path d="M0 232.596L-1.14404e-07 235.531L68.3126 308.036L71.0764 308.036L0 232.596Z" fill="#585892"/>
<path d="M0 259.04L-1.14404e-07 261.976L43.3952 308.035L46.1626 308.035L0 259.04Z" fill="#585892"/>
<path d="M162.938 224.813L162.938 221.879L81.7656 135.726L81.7656 138.661L162.938 224.813Z" fill="#585892"/>
<path d="M0 286.953L-1.1433e-07 289.887L17.0977 308.035L19.8634 308.035L0 286.953Z" fill="#585892"/>
<path d="M81.759 420.147L0.588867 333.993L0.588867 336.929L81.759 423.083L81.759 420.147Z" fill="#585892"/>
<path d="M81.759 394.187L0.588867 308.035L0.588867 310.971L81.759 397.121L81.759 394.187Z" fill="#585892"/>
<path d="M81.759 83.7789L0.588867 -2.375L0.588867 0.560555L81.759 86.7144L81.759 83.7789Z" fill="#585892"/>
<path d="M81.759 109.737L0.588867 23.585L0.588867 26.5205L81.759 112.672L81.759 109.737Z" fill="#585892"/>
<path d="M81.759 135.699L0.588867 49.5469L0.588867 52.4824L81.759 138.634L81.759 135.699Z" fill="#585892"/>
<path d="M0 75.3594L-1.1433e-07 78.293L61.882 143.974L64.6459 143.974L0 75.3594Z" fill="#585892"/>
<path d="M0 101.804L-1.1433e-07 104.737L36.9664 143.971L39.7303 143.971L0 101.804Z" fill="#585892"/>
<path d="M0 128.25L-1.1433e-07 131.184L12.0491 143.973L14.8147 143.973L0 128.25Z" fill="#585892"/>
<path d="M81.759 57.817L0.588867 -28.335L0.588867 -25.3994L81.759 60.7507L81.759 57.817Z" fill="#585892"/>
</g>
</svg>
