<svg width="50" height="50" viewBox="0 0 50 50" fill="none" xmlns="http://www.w3.org/2000/svg">
<circle opacity="0.1" cx="25" cy="25" r="25" fill="#3E3E59"/>
<path d="M25 6C25 4.34315 26.3493 2.97898 27.9908 3.20422C31.2809 3.65569 34.4397 4.84826 37.2225 6.70767C40.8404 9.12506 43.6602 12.561 45.3253 16.581C46.9905 20.6009 47.4261 25.0244 46.5773 29.292C45.9243 32.5745 44.534 35.6514 42.5267 38.2971C41.5253 39.6171 39.6066 39.6066 38.435 38.435L25.8787 25.8787C25.3161 25.3161 25 24.553 25 23.7574L25 6Z" fill="white"/>
<path d="M25.1851 18.433H26.8851V30.333H24.9301V20.524L22.5331 21.204L22.0571 19.538L25.1851 18.433Z" fill="#3E3E59"/>
</svg>
