<svg width="50" height="50" viewBox="0 0 50 50" fill="none" xmlns="http://www.w3.org/2000/svg">
<circle opacity="0.1" cx="25" cy="25" r="25" fill="#3E3E59"/>
<circle cx="25" cy="25" r="22" fill="white"/>
<path d="M26.0864 23.295C26.9477 23.499 27.6447 23.9013 28.1774 24.502C28.7214 25.0913 28.9934 25.8337 28.9934 26.729C28.9934 27.919 28.591 28.854 27.7864 29.534C26.9817 30.214 25.9957 30.554 24.8284 30.554C23.9217 30.554 23.1057 30.3443 22.3804 29.925C21.6664 29.5057 21.1507 28.8937 20.8334 28.089L22.4994 27.12C22.8507 28.14 23.627 28.65 24.8284 28.65C25.5084 28.65 26.0467 28.48 26.4434 28.14C26.84 27.7887 27.0384 27.3183 27.0384 26.729C27.0384 26.1397 26.84 25.675 26.4434 25.335C26.0467 24.995 25.5084 24.825 24.8284 24.825H24.3864L23.6044 23.652L26.1714 20.269H21.1904V18.433H28.5004V20.099L26.0864 23.295Z" fill="#3E3E59"/>
</svg>
