<svg width="50" height="50" viewBox="0 0 50 50" fill="none" xmlns="http://www.w3.org/2000/svg">
<circle opacity="0.1" cx="25" cy="25" r="25" fill="#3E3E59"/>
<path d="M25 6C25 4.34315 26.3493 2.97899 27.9907 3.20423C30.5653 3.55751 33.065 4.36528 35.3707 5.59773C38.5614 7.30321 41.2823 9.76926 43.2923 12.7775C45.3023 15.7856 46.5394 19.2431 46.8941 22.8436C47.2487 26.4441 46.7099 30.0765 45.3253 33.419C43.9408 36.7616 41.7533 39.711 38.9567 42.0062C36.16 44.3014 32.8404 45.8714 29.292 46.5773C25.7436 47.2831 22.0759 47.1029 18.6137 46.0527C16.1119 45.2937 13.7731 44.0974 11.7028 42.5267C10.3829 41.5253 10.3934 39.6066 11.565 38.435L24.1213 25.8787C24.6839 25.3161 25 24.553 25 23.7574V6Z" fill="white"/>
<path d="M21.0267 30.333V28.803L25.1747 24.57C26.1833 23.5613 26.6877 22.6887 26.6877 21.952C26.6877 21.374 26.512 20.9263 26.1607 20.609C25.8207 20.2803 25.3843 20.116 24.8517 20.116C23.8543 20.116 23.1177 20.609 22.6417 21.595L20.9927 20.626C21.3667 19.8327 21.8937 19.232 22.5737 18.824C23.2537 18.416 24.0073 18.212 24.8347 18.212C25.8773 18.212 26.7727 18.5407 27.5207 19.198C28.2687 19.8553 28.6427 20.7507 28.6427 21.884C28.6427 23.0967 27.9683 24.3887 26.6197 25.76L23.9337 28.446H28.8637V30.333H21.0267Z" fill="#3E3E59"/>
</svg>
