<svg width="520" height="500" viewBox="0 0 520 500" fill="none" xmlns="http://www.w3.org/2000/svg">
<g opacity="0.1">
<path d="M571.483 420.024L573.584 420.024L511.916 354.573L509.815 354.573L571.483 420.024Z" fill="#585892"/>
<path d="M553.605 420.024L491.938 354.573L491.938 356.802L551.504 420.024L553.605 420.024Z" fill="#585892"/>
<path d="M571.483 164.484L573.584 164.484L511.916 99.0336L509.815 99.0336L571.483 164.484Z" fill="#585892"/>
<path d="M553.605 164.484L491.938 99.0336L491.938 101.262L551.504 164.484L553.605 164.484Z" fill="#585892"/>
<path d="M553.611 501.16L553.611 498.93L491.945 433.481L491.945 435.711L553.611 501.16Z" fill="#585892"/>
<path d="M553.611 520.882L553.611 518.653L491.945 453.202L491.945 455.432L553.611 520.882Z" fill="#585892"/>
<path d="M553.611 540.603L553.611 538.375L491.945 472.924L491.945 475.154L553.611 540.603Z" fill="#585892"/>
<path d="M478.944 479.21L476.844 479.21L538.51 544.66L540.611 544.66L478.944 479.21Z" fill="#585892"/>
<path d="M460.014 479.21L457.915 479.21L519.582 544.66L521.682 544.66L460.014 479.21Z" fill="#585892"/>
<path d="M441.085 479.21L438.984 479.21L500.653 544.662L502.753 544.662L441.085 479.21Z" fill="#585892"/>
<path d="M422.157 479.21L420.056 479.21L481.725 544.662L483.824 544.662L422.157 479.21Z" fill="#585892"/>
<path d="M403.23 479.21L401.129 479.21L462.796 544.662L464.896 544.662L403.23 479.21Z" fill="#585892"/>
<path d="M553.611 481.439L553.611 479.208L491.945 413.759L491.945 415.989L553.611 481.439Z" fill="#585892"/>
<path d="M383.25 479.21L383.25 481.438L442.818 544.662L444.918 544.662L383.25 479.21Z" fill="#585892"/>
<path d="M553.611 245.621L553.611 243.391L491.945 177.941L491.945 180.171L553.611 245.621Z" fill="#585892"/>
<path d="M553.611 265.343L553.611 263.115L491.945 197.664L491.945 199.894L553.611 265.343Z" fill="#585892"/>
<path d="M553.611 285.065L553.611 282.836L491.945 217.386L491.945 219.616L553.611 285.065Z" fill="#585892"/>
<path d="M538.51 289.122L540.611 289.122L478.943 223.671L476.843 223.671L538.51 289.122Z" fill="#585892"/>
<path d="M519.582 289.122L521.683 289.122L460.016 223.671L457.915 223.671L519.582 289.122Z" fill="#585892"/>
<path d="M500.653 289.122L502.754 289.122L441.086 223.671L438.985 223.671L500.653 289.122Z" fill="#585892"/>
<path d="M481.725 289.122L483.826 289.122L422.157 223.671L420.057 223.671L481.725 289.122Z" fill="#585892"/>
<path d="M462.796 289.122L464.897 289.122L403.23 223.67L401.129 223.671L462.796 289.122Z" fill="#585892"/>
<path d="M553.611 225.899L553.611 223.67L491.945 158.22L491.945 160.45L553.611 225.899Z" fill="#585892"/>
<path d="M444.918 289.122L383.25 223.671L383.25 225.9L442.817 289.122L444.918 289.122Z" fill="#585892"/>
<path d="M553.611 9.80374L553.611 7.5736L491.945 -57.8757L491.945 -55.6456L553.611 9.80374Z" fill="#585892"/>
<path d="M553.611 29.5255L553.611 27.2968L491.945 -38.154L491.945 -35.9239L553.611 29.5255Z" fill="#585892"/>
<path d="M538.51 33.5826L540.611 33.5826L478.943 -31.8682L476.843 -31.8682L538.51 33.5826Z" fill="#585892"/>
<path d="M519.582 33.5826L521.683 33.5826L460.016 -31.8682L457.915 -31.8682L519.582 33.5826Z" fill="#585892"/>
<path d="M500.653 33.5826L502.754 33.5826L441.086 -31.8682L438.985 -31.8682L500.653 33.5826Z" fill="#585892"/>
<path d="M481.725 33.5826L483.826 33.5826L422.157 -31.8682L420.057 -31.8682L481.725 33.5826Z" fill="#585892"/>
<path d="M462.796 33.5826L464.897 33.5826L403.23 -31.8682L401.129 -31.8682L462.796 33.5826Z" fill="#585892"/>
<path d="M444.917 33.5826L383.25 -31.8682L383.25 -29.6395L442.816 33.5826L444.917 33.5826Z" fill="#585892"/>
<path d="M491.94 376.523L491.94 374.293L430.274 308.844L430.274 311.074L491.94 376.523Z" fill="#585892"/>
<path d="M491.941 396.244L491.941 394.015L430.275 328.564L430.275 330.794L491.941 396.244Z" fill="#585892"/>
<path d="M491.941 415.967L491.941 413.738L430.275 348.287L430.275 350.517L491.941 415.967Z" fill="#585892"/>
<path d="M476.839 420.024L478.94 420.024L417.271 354.573L415.172 354.573L476.839 420.024Z" fill="#585892"/>
<path d="M457.911 420.024L460.012 420.024L398.344 354.573L396.243 354.573L457.911 420.024Z" fill="#585892"/>
<path d="M438.981 420.024L441.082 420.024L379.415 354.573L377.314 354.573L438.981 420.024Z" fill="#585892"/>
<path d="M420.053 420.024L422.154 420.024L360.485 354.573L358.385 354.573L420.053 420.024Z" fill="#585892"/>
<path d="M401.125 420.024L403.226 420.024L341.558 354.571L339.457 354.571L401.125 420.024Z" fill="#585892"/>
<path d="M491.94 356.8L491.94 354.572L430.274 289.121L430.274 291.351L491.94 356.8Z" fill="#585892"/>
<path d="M383.247 420.024L321.58 354.571L321.58 356.801L381.147 420.024L383.247 420.024Z" fill="#585892"/>
<path d="M491.94 120.984L491.94 118.755L430.274 53.3042L430.274 55.5343L491.94 120.984Z" fill="#585892"/>
<path d="M491.94 140.706L491.94 138.476L430.274 73.0266L430.274 75.2567L491.94 140.706Z" fill="#585892"/>
<path d="M491.94 160.427L491.94 158.199L430.274 92.7478L430.274 94.9779L491.94 160.427Z" fill="#585892"/>
<path d="M476.839 164.484L478.94 164.484L417.271 99.0336L415.172 99.0336L476.839 164.484Z" fill="#585892"/>
<path d="M457.91 164.484L460.011 164.484L398.343 99.0336L396.242 99.0336L457.91 164.484Z" fill="#585892"/>
<path d="M438.981 164.484L441.082 164.484L379.415 99.0336L377.314 99.0336L438.981 164.484Z" fill="#585892"/>
<path d="M420.053 164.484L422.154 164.484L360.485 99.0336L358.385 99.0336L420.053 164.484Z" fill="#585892"/>
<path d="M401.125 164.484L403.226 164.484L341.558 99.0336L339.457 99.0336L401.125 164.484Z" fill="#585892"/>
<path d="M491.94 101.262L491.94 99.0332L430.274 33.5824L430.274 35.8125L491.94 101.262Z" fill="#585892"/>
<path d="M383.246 164.484L321.579 99.0336L321.579 101.262L381.146 164.484L383.246 164.484Z" fill="#585892"/>
<path d="M383.253 501.16L383.253 498.93L321.587 433.481L321.587 435.711L383.253 501.16Z" fill="#585892"/>
<path d="M383.253 520.882L383.253 518.653L321.587 453.202L321.587 455.432L383.253 520.882Z" fill="#585892"/>
<path d="M383.253 540.603L383.253 538.375L321.587 472.924L321.587 475.154L383.253 540.603Z" fill="#585892"/>
<path d="M308.585 479.21L306.485 479.21L368.152 544.662L370.252 544.662L308.585 479.21Z" fill="#585892"/>
<path d="M289.655 479.21L287.556 479.21L349.223 544.662L351.323 544.662L289.655 479.21Z" fill="#585892"/>
<path d="M270.727 479.21L268.627 479.21L330.295 544.662L332.395 544.662L270.727 479.21Z" fill="#585892"/>
<path d="M251.798 479.21L249.697 479.21L311.366 544.662L313.467 544.662L251.798 479.21Z" fill="#585892"/>
<path d="M232.871 479.21L230.772 479.21L292.438 544.662L294.537 544.662L232.871 479.21Z" fill="#585892"/>
<path d="M383.253 481.439L383.253 479.208L321.587 413.759L321.587 415.989L383.253 481.439Z" fill="#585892"/>
<path d="M212.891 479.21L212.891 481.438L272.459 544.662L274.558 544.662L212.891 479.21Z" fill="#585892"/>
<path d="M383.252 245.621L383.252 243.391L321.586 177.941L321.586 180.171L383.252 245.621Z" fill="#585892"/>
<path d="M383.252 265.343L383.252 263.115L321.586 197.664L321.586 199.894L383.252 265.343Z" fill="#585892"/>
<path d="M383.252 285.065L383.252 282.836L321.586 217.386L321.586 219.616L383.252 285.065Z" fill="#585892"/>
<path d="M368.15 289.122L370.251 289.122L308.583 223.671L306.483 223.671L368.15 289.122Z" fill="#585892"/>
<path d="M349.222 289.122L351.323 289.122L289.656 223.671L287.555 223.671L349.222 289.122Z" fill="#585892"/>
<path d="M330.294 289.122L332.395 289.122L270.727 223.671L268.626 223.671L330.294 289.122Z" fill="#585892"/>
<path d="M311.365 289.122L313.466 289.122L251.798 223.671L249.698 223.671L311.365 289.122Z" fill="#585892"/>
<path d="M292.436 289.122L294.537 289.122L232.87 223.67L230.769 223.67L292.436 289.122Z" fill="#585892"/>
<path d="M383.252 225.899L383.252 223.67L321.586 158.22L321.586 160.45L383.252 225.899Z" fill="#585892"/>
<path d="M274.558 289.122L212.891 223.67L212.891 225.9L272.459 289.122L274.558 289.122Z" fill="#585892"/>
<path d="M383.252 9.80374L383.252 7.5736L321.586 -57.8757L321.586 -55.6456L383.252 9.80374Z" fill="#585892"/>
<path d="M383.252 29.5255L383.252 27.2968L321.586 -38.154L321.586 -35.9239L383.252 29.5255Z" fill="#585892"/>
<path d="M368.15 33.5832L370.251 33.5832L308.583 -31.8676L306.483 -31.8676L368.15 33.5832Z" fill="#585892"/>
<path d="M349.222 33.5832L351.323 33.5832L289.656 -31.8676L287.555 -31.8676L349.222 33.5832Z" fill="#585892"/>
<path d="M330.295 33.5832L332.396 33.5832L270.728 -31.8676L268.627 -31.8676L330.295 33.5832Z" fill="#585892"/>
<path d="M311.365 33.5832L313.466 33.5832L251.798 -31.8676L249.698 -31.8676L311.365 33.5832Z" fill="#585892"/>
<path d="M292.436 33.5832L294.537 33.5832L232.87 -31.8676L230.769 -31.8676L292.436 33.5832Z" fill="#585892"/>
<path d="M274.558 33.5832L212.891 -31.8676L212.891 -29.6389L272.459 33.5832L274.558 33.5832Z" fill="#585892"/>
<path d="M321.581 376.523L321.581 374.293L259.915 308.844L259.915 311.074L321.581 376.523Z" fill="#585892"/>
<path d="M321.581 396.245L321.581 394.016L259.915 328.566L259.915 330.796L321.581 396.245Z" fill="#585892"/>
<path d="M321.581 415.967L321.581 413.738L259.915 348.287L259.915 350.517L321.581 415.967Z" fill="#585892"/>
<path d="M306.48 420.024L308.581 420.024L246.912 354.571L244.812 354.571L306.48 420.024Z" fill="#585892"/>
<path d="M287.55 420.024L289.651 420.024L227.984 354.571L225.883 354.571L287.55 420.024Z" fill="#585892"/>
<path d="M268.622 420.024L270.723 420.024L209.056 354.571L206.955 354.571L268.622 420.024Z" fill="#585892"/>
<path d="M249.694 420.024L251.795 420.024L190.126 354.571L188.026 354.571L249.694 420.024Z" fill="#585892"/>
<path d="M230.764 420.024L232.865 420.024L171.198 354.571L169.097 354.571L230.764 420.024Z" fill="#585892"/>
<path d="M321.581 356.8L321.581 354.572L259.915 289.121L259.915 291.351L321.581 356.8Z" fill="#585892"/>
<path d="M212.886 420.024L151.218 354.573L151.218 356.802L210.786 420.024L212.886 420.024Z" fill="#585892"/>
<path d="M321.581 120.984L321.581 118.756L259.915 53.3048L259.915 55.5349L321.581 120.984Z" fill="#585892"/>
<path d="M321.581 140.706L321.581 138.477L259.915 73.0266L259.915 75.2567L321.581 140.706Z" fill="#585892"/>
<path d="M321.581 160.427L321.581 158.199L259.915 92.7478L259.915 94.9779L321.581 160.427Z" fill="#585892"/>
<path d="M306.48 164.484L308.581 164.484L246.912 99.0336L244.812 99.0336L306.48 164.484Z" fill="#585892"/>
<path d="M287.549 164.484L289.65 164.484L227.983 99.0336L225.882 99.0336L287.549 164.484Z" fill="#585892"/>
<path d="M268.622 164.484L270.723 164.484L209.056 99.0336L206.955 99.0336L268.622 164.484Z" fill="#585892"/>
<path d="M249.693 164.484L251.794 164.484L190.125 99.0336L188.025 99.0336L249.693 164.484Z" fill="#585892"/>
<path d="M230.764 164.484L232.865 164.484L171.198 99.0336L169.097 99.0336L230.764 164.484Z" fill="#585892"/>
<path d="M321.581 101.262L321.581 99.0332L259.915 33.5824L259.915 35.8125L321.581 101.262Z" fill="#585892"/>
<path d="M212.886 164.484L151.218 99.0336L151.218 101.262L210.786 164.484L212.886 164.484Z" fill="#585892"/>
<path d="M212.893 501.16L212.893 498.93L151.227 433.481L151.227 435.711L212.893 501.16Z" fill="#585892"/>
<path d="M212.894 520.882L212.894 518.653L151.228 453.202L151.228 455.432L212.894 520.882Z" fill="#585892"/>
<path d="M212.894 540.603L212.894 538.375L151.228 472.924L151.228 475.154L212.894 540.603Z" fill="#585892"/>
<path d="M138.226 479.21L136.126 479.21L197.793 544.662L199.893 544.662L138.226 479.21Z" fill="#585892"/>
<path d="M119.295 479.21L117.194 479.21L178.863 544.662L180.963 544.662L119.295 479.21Z" fill="#585892"/>
<path d="M100.367 479.21L98.2661 479.21L159.935 544.662L162.035 544.662L100.367 479.21Z" fill="#585892"/>
<path d="M81.4389 479.21L79.3379 479.21L141.007 544.662L143.108 544.662L81.4389 479.21Z" fill="#585892"/>
<path d="M62.5103 479.21L60.4106 479.21L122.077 544.662L124.176 544.662L62.5103 479.21Z" fill="#585892"/>
<path d="M212.894 481.439L212.894 479.208L151.228 413.759L151.228 415.989L212.894 481.439Z" fill="#585892"/>
<path d="M42.5332 479.21L42.5332 481.438L102.1 544.662L104.199 544.662L42.5332 479.21Z" fill="#585892"/>
<path d="M212.893 245.621L212.893 243.391L151.227 177.941L151.227 180.171L212.893 245.621Z" fill="#585892"/>
<path d="M212.893 265.343L212.893 263.113L151.227 197.664L151.227 199.894L212.893 265.343Z" fill="#585892"/>
<path d="M212.894 285.065L212.894 282.835L151.228 217.386L151.228 219.616L212.894 285.065Z" fill="#585892"/>
<path d="M197.792 289.122L199.893 289.122L138.225 223.67L136.125 223.67L197.792 289.122Z" fill="#585892"/>
<path d="M178.863 289.122L180.964 289.122L119.296 223.67L117.195 223.67L178.863 289.122Z" fill="#585892"/>
<path d="M159.934 289.122L162.036 289.122L100.368 223.67L98.2671 223.67L159.934 289.122Z" fill="#585892"/>
<path d="M141.006 289.122L143.107 289.122L81.4386 223.67L79.3389 223.67L141.006 289.122Z" fill="#585892"/>
<path d="M122.078 289.122L124.179 289.122L62.5117 223.669L60.4106 223.669L122.078 289.122Z" fill="#585892"/>
<path d="M212.893 225.899L212.893 223.67L151.227 158.22L151.227 160.45L212.893 225.899Z" fill="#585892"/>
<path d="M104.199 289.122L42.5317 223.671L42.5317 225.9L102.098 289.122L104.199 289.122Z" fill="#585892"/>
<path d="M212.893 9.80374L212.893 7.57505L151.227 -57.8757L151.227 -55.6456L212.893 9.80374Z" fill="#585892"/>
<path d="M212.893 29.5261L212.893 27.2974L151.227 -38.1534L151.227 -35.9232L212.893 29.5261Z" fill="#585892"/>
<path d="M197.792 33.5832L199.893 33.5832L138.225 -31.8676L136.125 -31.8676L197.792 33.5832Z" fill="#585892"/>
<path d="M178.863 33.5832L180.964 33.5832L119.296 -31.8676L117.195 -31.8676L178.863 33.5832Z" fill="#585892"/>
<path d="M159.934 33.5832L162.036 33.5832L100.368 -31.8676L98.2671 -31.8676L159.934 33.5832Z" fill="#585892"/>
<path d="M141.006 33.5832L143.107 33.5832L81.4386 -31.8676L79.3389 -31.8676L141.006 33.5832Z" fill="#585892"/>
<path d="M122.078 33.5832L124.179 33.5832L62.5117 -31.8676L60.4106 -31.8676L122.078 33.5832Z" fill="#585892"/>
<path d="M104.199 33.5832L42.5317 -31.8676L42.5317 -29.6389L102.098 33.5832L104.199 33.5832Z" fill="#585892"/>
<path d="M151.222 376.523L151.222 374.293L89.5557 308.844L89.5557 311.074L151.222 376.523Z" fill="#585892"/>
<path d="M151.223 396.245L151.223 394.015L89.5566 328.566L89.5566 330.796L151.223 396.245Z" fill="#585892"/>
<path d="M151.223 415.967L151.223 413.738L89.5566 348.287L89.5566 350.517L151.223 415.967Z" fill="#585892"/>
<path d="M136.121 420.024L138.222 420.024L76.5528 354.573L74.4531 354.573L136.121 420.024Z" fill="#585892"/>
<path d="M117.191 420.024L119.292 420.024L57.625 354.573L55.5239 354.573L117.191 420.024Z" fill="#585892"/>
<path d="M98.2631 420.024L100.364 420.024L38.6967 354.573L36.5957 354.573L98.2631 420.024Z" fill="#585892"/>
<path d="M79.3349 420.024L81.4359 420.024L19.7672 354.573L17.6675 354.573L79.3349 420.024Z" fill="#585892"/>
<path d="M60.4062 420.024L62.5072 420.024L0.839808 354.573L-1.26123 354.573L60.4062 420.024Z" fill="#585892"/>
<path d="M151.222 356.801L151.222 354.573L89.5557 289.122L89.5557 291.352L151.222 356.801Z" fill="#585892"/>
<path d="M42.5268 420.024L-19.1406 354.573L-19.1406 356.802L40.4257 420.024L42.5268 420.024Z" fill="#585892"/>
<path d="M151.222 120.984L151.222 118.756L89.5557 53.3048L89.5557 55.5349L151.222 120.984Z" fill="#585892"/>
<path d="M151.222 140.706L151.222 138.476L89.5557 73.0266L89.5557 75.2567L151.222 140.706Z" fill="#585892"/>
<path d="M151.223 160.427L151.223 158.199L89.5566 92.7478L89.5566 94.9779L151.223 160.427Z" fill="#585892"/>
<path d="M136.121 164.484L138.222 164.484L76.5528 99.0336L74.4531 99.0336L136.121 164.484Z" fill="#585892"/>
<path d="M117.191 164.484L119.292 164.484L57.625 99.0336L55.5239 99.0336L117.191 164.484Z" fill="#585892"/>
<path d="M98.2631 164.484L100.364 164.484L38.6967 99.0336L36.5957 99.0336L98.2631 164.484Z" fill="#585892"/>
<path d="M79.3349 164.484L81.4359 164.484L19.7672 99.0336L17.6675 99.0336L79.3349 164.484Z" fill="#585892"/>
<path d="M60.4052 164.484L62.5062 164.484L0.838831 99.0336L-1.26221 99.0336L60.4052 164.484Z" fill="#585892"/>
<path d="M151.222 101.262L151.222 99.0332L89.5557 33.5824L89.5557 35.8125L151.222 101.262Z" fill="#585892"/>
<path d="M42.5268 164.484L-19.1406 99.0336L-19.1406 101.262L40.4257 164.484L42.5268 164.484Z" fill="#585892"/>
<path d="M42.5327 501.16L42.5327 498.93L-19.1333 433.481L-19.1333 435.711L42.5327 501.16Z" fill="#585892"/>
<path d="M42.5342 520.882L42.5342 518.653L-19.1318 453.202L-19.1318 455.432L42.5342 520.882Z" fill="#585892"/>
<path d="M42.5327 540.605L42.5327 538.376L-19.1333 472.925L-19.1333 475.155L42.5327 540.605Z" fill="#585892"/>
<path d="M-32.1347 479.21L-34.2344 479.21L27.433 544.662L29.5327 544.662L-32.1347 479.21Z" fill="#585892"/>
<path d="M-51.0625 479.21L-53.1636 479.21L8.50516 544.662L10.6048 544.662L-51.0625 479.21Z" fill="#585892"/>
<path d="M42.5342 481.439L42.5342 479.208L-19.1318 413.759L-19.1318 415.989L42.5342 481.439Z" fill="#585892"/>
<path d="M42.5327 245.621L42.5327 243.391L-19.1333 177.941L-19.1333 180.171L42.5327 245.621Z" fill="#585892"/>
<path d="M42.5337 265.344L42.5337 263.114L-19.1323 197.664L-19.1323 199.895L42.5337 265.344Z" fill="#585892"/>
<path d="M42.5327 285.065L42.5327 282.836L-19.1333 217.386L-19.1333 219.616L42.5327 285.065Z" fill="#585892"/>
<path d="M27.433 289.122L29.534 289.122L-32.1347 223.671L-34.2344 223.671L27.433 289.122Z" fill="#585892"/>
<path d="M8.50381 289.122L10.6048 289.122L-51.0625 223.671L-53.1636 223.671L8.50381 289.122Z" fill="#585892"/>
<path d="M42.5327 225.899L42.5327 223.67L-19.1333 158.22L-19.1333 160.45L42.5327 225.899Z" fill="#585892"/>
<path d="M42.5337 9.80374L42.5337 7.5736L-19.1323 -57.8757L-19.1323 -55.6456L42.5337 9.80374Z" fill="#585892"/>
<path d="M42.5327 29.5261L42.5327 27.2974L-19.1333 -38.1534L-19.1333 -35.9232L42.5327 29.5261Z" fill="#585892"/>
<path d="M27.433 33.5832L29.534 33.5832L-32.1347 -31.8676L-34.2344 -31.8676L27.433 33.5832Z" fill="#585892"/>
<path d="M8.50478 33.5832L10.6058 33.5832L-51.0616 -31.8676L-53.1626 -31.8676L8.50478 33.5832Z" fill="#585892"/>
</g>
</svg>
